<?xml version="1.0" encoding="UTF-8"?>
<svg version="1.1" xmlns="http://www.w3.org/2000/svg" width="2048" height="2048">
<path d="M0 0 C675.84 0 1351.68 0 2048 0 C2048 675.84 2048 1351.68 2048 2048 C1372.16 2048 696.32 2048 0 2048 C0 1372.16 0 696.32 0 0 Z " fill="#1C1F26" transform="translate(0,0)"/>
<path d="M0 0 C30.03 0 60.06 0 91 0 C103.76391788 29.00890428 103.76391788 29.00890428 109.125 41.5625 C109.75541507 43.03647433 110.38586891 44.51043208 111.01635742 45.984375 C112.67489135 49.86340558 114.33114011 53.74340703 115.98638916 57.62384033 C117.00410453 60.00962204 118.02230741 62.39519531 119.04052734 64.78076172 C132.4766914 96.26939324 145.88678937 127.77723231 158.7199707 159.51733398 C164.02841247 172.60715719 169.51819938 185.62196111 174.984375 198.64648438 C175.36669785 199.55766022 175.74902069 200.46883606 176.14292908 201.40762329 C176.86477299 203.12752109 177.58704885 204.84723769 178.30982971 206.56674194 C179.90489277 210.36579558 181.48754811 214.16704094 183 218 C189.86882207 202.70378632 196.42387392 187.28839081 202.875 171.8125 C208.52374921 158.26373398 214.23127176 144.7482797 220.09716797 131.29199219 C233.29539984 100.98677373 246.12955293 70.51154853 258.7409668 39.95751953 C264.31395738 26.53869408 270.14126405 13.31530897 276 0 C305.7 0 335.4 0 366 0 C366 149.49 366 298.98 366 453 C336.96 453 307.92 453 278 453 C277.67 375.45 277.34 297.9 277 218 C266.55570518 242.08896526 266.55570518 242.08896526 256.27734375 266.24609375 C252.31687961 275.62991927 248.32284965 284.99946405 244.33248901 294.37060547 C233.47075238 319.87975329 222.66388443 345.40667737 212 371 C193.19 371 174.38 371 155 371 C142.14745205 341.78966376 142.14745205 341.78966376 137.9375 331.9375 C137.19318726 330.19847412 137.19318726 330.19847412 136.43383789 328.42431641 C132.81035022 319.94036332 129.24553502 311.43297556 125.70751953 302.91308594 C116.8659918 281.62467923 107.77950088 260.44015623 98.68588257 239.25856018 C95.78741454 232.50706229 92.89427365 225.75330518 90 219 C89.67 296.22 89.34 373.44 89 453 C59.63 453 30.26 453 0 453 C0 303.51 0 154.02 0 0 Z " fill="#D1D3D8" transform="translate(799,644)"/>
<path d="M0 0 C11.04814541 0.10738731 22.09622392 0.21999729 33.14424706 0.33933926 C38.27387692 0.39458458 43.40351247 0.44800716 48.53320312 0.49731445 C53.48044538 0.54493426 58.42761688 0.5972762 63.37477493 0.65294075 C65.26546093 0.67337512 67.15616634 0.69208639 69.04688644 0.70907402 C71.68806753 0.73309409 74.32911421 0.76315187 76.97021484 0.79467773 C78.15164818 0.80331093 78.15164818 0.80331093 79.35694885 0.81211853 C84.77189568 0.88594784 84.77189568 0.88594784 87 2 C87 40.28 87 78.56 87 118 C85.515 118.495 85.515 118.495 84 119 C84.350625 119.969375 84.70125 120.93875 85.0625 121.9375 C85.49194837 124.88995751 85.15651307 125.78996242 83.34375 128.22265625 C80.97095086 130.59139238 78.53749871 132.807715 76 135 C70.61890871 139.66073678 65.35969391 144.4211261 60.1875 149.3125 C52.60487731 156.45074573 44.99384224 163.55098328 37.125 170.375 C33.5142767 173.5102371 30.0061171 176.74905447 26.5 180 C22.36179406 183.83668873 18.19335339 187.62277652 13.9296875 191.3203125 C6.64030771 197.6653192 -0.43668346 204.23860904 -7.47094727 210.86352539 C-10.56968932 213.77252307 -13.69964955 216.62858648 -16.91015625 219.4140625 C-21.3187113 223.24670597 -25.569695 227.23562492 -29.8125 231.25 C-30.93688477 232.30960938 -30.93688477 232.30960938 -32.08398438 233.390625 C-35.09055061 236.22792075 -38.089818 239.06345867 -41 242 C-40.29037109 242.78310547 -40.29037109 242.78310547 -39.56640625 243.58203125 C-35.03702033 248.62351148 -30.6910648 253.78008822 -26.421875 259.04296875 C-23.7967415 262.24817207 -21.12296457 265.40791026 -18.4375 268.5625 C-14.63837328 273.03206085 -10.92777411 277.55682668 -7.28125 282.15234375 C-0.01868867 291.21810953 7.40570058 300.15700198 14.9375 309 C18.37996992 313.04368142 21.70517751 317.1507981 24.93359375 321.3671875 C29.62872844 327.34926837 34.52916827 333.16934815 39.37402344 339.03027344 C41.42402348 341.51366688 43.4633376 344.00566065 45.5 346.5 C54.00054601 356.89657857 62.50839545 367.28378854 71.21362305 377.51000977 C75.24523274 382.25892297 79.14524645 387.10700337 83 392 C82.67 392.66 82.34 393.32 82 394 C67.86505157 394.19711325 53.73143757 394.31206926 39.59508896 394.33421898 C33.02984958 394.3468686 26.4669053 394.38521361 19.90234375 394.48339844 C13.56026864 394.57729174 7.22124316 394.60222789 0.87854767 394.58046341 C-1.53436094 394.58408796 -3.94736625 394.61207056 -6.35968781 394.66541672 C-26.23875136 395.08004735 -26.23875136 395.08004735 -32.06359863 389.97662354 C-34.73357794 387.13228085 -36.88727089 384.07799937 -38.9033432 380.74576187 C-40.59504868 378.05274531 -42.62298366 375.72905815 -44.6875 373.3125 C-46.12607457 371.5425395 -47.56360505 369.7717298 -49 368 C-51.99536798 364.32953962 -54.99639714 360.66372344 -58 357 C-58.52255371 356.36255859 -59.04510742 355.72511719 -59.58349609 355.06835938 C-66.07848249 347.15044965 -72.59985511 339.25999197 -79.23779297 331.46142578 C-81.8800408 328.3489225 -84.46337491 325.19902314 -87 322 C-91.39067412 316.46471022 -95.96595537 311.09111496 -100.54589844 305.71289062 C-102.03901645 303.95403972 -103.52438936 302.18890788 -105.0078125 300.421875 C-105.49854248 299.83833252 -105.98927246 299.25479004 -106.49487305 298.65356445 C-107.42996113 297.54123848 -108.36379726 296.42785837 -109.29614258 295.31323242 C-111.74525382 292.40563499 -114.2676723 289.6435746 -117 287 C-117.2055463 287.56100245 -117.41109261 288.12200491 -117.62286758 288.70000744 C-119.16056189 291.2681595 -121.01510152 292.68540226 -123.37051034 294.48776406 C-127.44600711 297.70217952 -130.48248591 300.40930889 -132.1150589 305.42737389 C-132.50947926 309.37841263 -132.55405392 313.24100968 -132.45410156 317.2019043 C-132.46059285 318.70107571 -132.47236558 320.20023202 -132.4889679 321.69932556 C-132.51893125 325.73714646 -132.47576208 329.77115347 -132.41865635 333.80855536 C-132.37151407 338.03932261 -132.39272053 342.26975787 -132.40643311 346.50068665 C-132.42209183 354.49787213 -132.37698422 362.49349377 -132.30961108 370.4903639 C-132.22203608 381.30657536 -132.22920054 392.12270722 -132.23083687 402.93920422 C-132.2309328 419.96043117 -132.10520933 436.97834378 -132 454 C-160.05 454 -188.1 454 -217 454 C-217 304.51 -217 155.02 -217 1 C-188.95 1 -160.9 1 -132 1 C-132 68.65 -132 136.3 -132 206 C-125.53157828 200.34521811 -125.53157828 200.34521811 -119.125 194.625 C-118.28453125 193.86703125 -117.4440625 193.1090625 -116.578125 192.328125 C-115.72734375 191.55984375 -114.8765625 190.7915625 -114 190 C-108.71259603 185.22531399 -103.41251963 180.47065952 -98.0390625 175.79296875 C-95.79710187 173.82158957 -93.58614197 171.81837309 -91.375 169.8125 C-87.37269197 166.19632582 -83.29716812 162.67992801 -79.1875 159.1875 C-73.83160849 154.63075542 -68.62123663 149.94361617 -63.47558594 145.15136719 C-60.06863043 141.97894088 -56.61075337 138.88435122 -53.08984375 135.83984375 C-50.35629441 133.43329844 -47.67885994 130.96696804 -45 128.5 C-41.09020819 124.89984677 -37.14133464 121.35582336 -33.125 117.875 C-30.38176506 115.45449858 -27.69118757 112.97795822 -25 110.5 C-21.6562497 107.42184079 -18.3033207 104.35916579 -14.875 101.375 C-14.30240448 100.85441513 -13.72980896 100.33383026 -13.13986206 99.79747009 C-11 98 -11 98 -8.47610474 96.41700745 C-4.83733959 93.86201673 -1.6937368 91.4251059 -0.42494965 86.98978806 C0.50544539 80.91581585 0.29451264 74.77803063 0.1953125 68.65234375 C0.19910361 66.66979185 0.2072992 64.68724393 0.21969604 62.70472717 C0.24043222 57.51068657 0.20168928 52.31875987 0.15020752 47.125 C0.10822054 41.81573142 0.12296192 36.50664631 0.1328125 31.19726562 C0.14380516 20.79758197 0.09191152 10.399248 0 0 Z " fill="#D2D3D7" transform="translate(1432,643)"/>
<path d="M0 0 C20.46 0 40.92 0 62 0 C62.33 27.06 62.66 54.12 63 82 C85.97943039 91.03764183 108.95072316 100.05349174 132.09124756 108.66812134 C143.97691548 113.09376759 155.81556125 117.62490709 167.625 122.25 C179.36627797 126.84588204 191.14326222 131.30153519 202.99584961 135.60424805 C214.59708779 139.825311 226.14281068 144.18945769 237.6875 148.5625 C257.85501349 156.19863207 278.05822736 163.72751189 298.30834961 171.14208984 C299.60140085 171.61555686 300.89445098 172.08902691 302.1875 172.5625 C303.14512741 172.91311493 303.14512741 172.91311493 304.12210083 173.27081299 C315.20038262 177.32801504 326.25358532 181.44888957 337.29492188 185.60546875 C344.51144434 188.32165064 351.72932726 191.0342025 358.94805908 193.74450684 C361.5547479 194.72361241 364.16092774 195.70406378 366.76708984 196.68457031 C374.94847675 199.75884654 383.14209009 202.78362563 391.37915039 205.70629883 C405.56462325 210.77465704 419.63836411 216.12972317 433.6875 221.5625 C444.20502572 225.62597214 454.72722996 229.6722882 465.29125977 233.61352539 C468.80548426 234.92728228 472.31293268 236.25795016 475.8203125 237.58984375 C477.92154269 238.37328768 480.02309965 239.15585581 482.125 239.9375 C483.19492187 240.34806641 484.26484375 240.75863281 485.3671875 241.18164062 C486.40359375 241.56384766 487.44 241.94605469 488.5078125 242.33984375 C489.42191895 242.68394287 490.33602539 243.02804199 491.27783203 243.38256836 C496.50537246 244.56825892 500.95660321 242.79391066 505.81640625 240.890625 C506.91146484 240.46523437 508.00652344 240.03984375 509.13476562 239.6015625 C510.26591797 239.15554688 511.39707031 238.70953125 512.5625 238.25 C514.79296875 237.38020833 517.0234375 236.51041667 519.25390625 235.640625 C520.23689697 235.25422852 521.2198877 234.86783203 522.23266602 234.46972656 C532.32401334 230.52156424 542.45759011 226.68928871 552.61328125 222.91015625 C553.87918965 222.43849521 555.14507348 221.9667682 556.41093445 221.49497986 C559.71046382 220.26541184 563.01028268 219.03662277 566.31018066 217.80804443 C571.56642126 215.85093357 576.82220073 213.89258428 582.07802963 211.93436813 C583.35008817 211.460431 584.62215491 210.98651585 585.89422989 210.51262283 C595.90708943 206.78238878 605.91522913 203.03999536 615.91668701 199.27929688 C626.40931502 195.33449066 636.91780382 191.43452356 647.4375 187.5625 C648.2411499 187.26652924 649.0447998 186.97055847 649.87280273 186.6656189 C667.19815734 180.28534263 684.5374896 173.94337369 701.87789917 167.60415649 C731.73153961 156.68992634 761.56405808 145.71783663 791.375 134.6875 C792.31496826 134.34001709 793.25493652 133.99253418 794.22338867 133.63452148 C803.2113018 130.30535247 812.18350601 126.93432831 821.15722656 123.56713867 C827.80020943 121.0745409 834.44430039 118.58490436 841.08851433 116.09559059 C845.06532246 114.6055309 849.04194921 113.1149872 853.01858616 111.62447071 C856.48560631 110.32500412 859.95272047 109.0257893 863.42001343 107.72705078 C883.87036582 100.06758639 883.87036582 100.06758639 904.2890625 92.32421875 C905.17521744 91.98650955 906.06137238 91.64880035 906.97438049 91.30085754 C910.92902542 89.79331932 914.88168726 88.28097709 918.83081055 86.7590332 C920.17489774 86.245423 921.51904972 85.73198231 922.86328125 85.21875 C923.99032471 84.78498047 925.11736816 84.35121094 926.27856445 83.90429688 C929 83 929 83 932 83 C932 55.61 932 28.22 932 0 C952.13 0 972.26 0 993 0 C993 38.28 993 76.56 993 116 C961.5513031 129.01325389 961.5513031 129.01325389 948.77371216 134.25720215 C938.34848758 138.53792768 927.9362091 142.84554849 917.5625 147.25 C905.96918732 152.17176858 894.36463685 157.06626009 882.75 161.9375 C881.34578796 162.52644547 881.34578796 162.52644547 879.91320801 163.12728882 C867.40614462 168.36814487 854.86145187 173.4862044 842.25 178.47045898 C832.17480951 182.47621669 822.21335499 186.72545154 812.25 191 C796.88345849 197.59157407 781.41465551 203.89074808 765.875 210.0625 C750.13912428 216.31247933 734.46524026 222.67403162 718.88058472 229.29214478 C707.2753711 234.21969581 695.62956737 239.03214296 683.9375 243.75 C683.16207855 244.06288971 682.3866571 244.37577942 681.58773804 244.69815063 C680.81910431 245.00828094 680.05047058 245.31841125 679.25854492 245.63793945 C677.73353481 246.25335259 676.20855076 246.8688303 674.68359375 247.484375 C673.57065193 247.93359566 673.57065193 247.93359566 672.43522644 248.39189148 C665.43935308 251.21946876 658.46762598 254.10348341 651.5 257 C641.45169151 261.17624026 631.3787434 265.28622621 621.28948975 269.36227417 C602.13390745 277.10130837 583.05145249 285.00834101 564 293 C562.97664551 293.42925781 561.95329102 293.85851563 560.89892578 294.30078125 C556.2840433 296.23828286 551.67190371 298.18218428 547.06152344 300.13037109 C544.91982569 301.03382057 542.77652575 301.9333753 540.6328125 302.83203125 C539.88467285 303.1460791 539.1365332 303.46012695 538.36572266 303.78369141 C536.83984888 304.42386614 535.31348702 305.06287884 533.78662109 305.70068359 C529.38284878 307.54800962 524.99862131 309.43398197 520.63014221 311.36349487 C518.07839302 312.48963385 515.52299486 313.60737023 512.96749878 314.72497559 C511.70370456 315.28059721 510.44172965 315.8403766 509.18167114 316.40441895 C507.40825304 317.1979133 505.62806118 317.97621523 503.84765625 318.75390625 C502.81648682 319.21095947 501.78531738 319.6680127 500.72290039 320.13891602 C497.834911 321.05220738 496.76692144 321.06516685 494 320 C492.46472656 319.49726562 492.46472656 319.49726562 490.8984375 318.984375 C484.46220754 316.72955386 478.3366241 314.28559831 472.28515625 311.1171875 C469.38469744 309.69918541 466.43407628 308.75388256 463.359375 307.7890625 C460.80331802 306.93422225 458.35569879 305.9289385 455.875 304.875 C448.82615033 301.88128006 441.68562577 299.13103432 434.53662109 296.38623047 C428.85810874 294.1869367 423.31004717 291.80516232 417.78100586 289.25488281 C412.93388973 287.06770197 407.995634 285.10847148 403.0625 283.125 C400.65180556 282.14973712 398.24150063 281.17359095 395.83203125 280.1953125 C395.2002597 279.9388092 394.56848816 279.68230591 393.91757202 279.41802979 C387.07747765 276.63454605 380.26834549 273.77780009 373.45721436 270.92437744 C353.37092224 262.51227407 333.18160413 254.36056805 312.98406982 246.21995544 C291.60539604 237.60242758 270.28644418 228.84263723 249 220 C248.07952881 219.61763184 247.15905762 219.23526367 246.21069336 218.84130859 C239.92581548 216.22643643 233.64794086 213.59500907 227.37109375 210.9609375 C210.30436133 203.8002569 193.23807121 196.64481847 176.08544922 189.69189453 C166.18460233 185.67753713 156.32385 181.57040143 146.46728516 177.44873047 C140.32850625 174.88377384 134.18646181 172.3266534 128.04486084 169.76846313 C125.74614703 168.81089498 123.4475204 167.85311789 121.14892578 166.89526367 C114.01955874 163.92436625 106.88999212 160.95395066 99.75967407 157.9853363 C69.03268782 145.19253365 69.03268782 145.19253365 56.0625 139.7109375 C52.83861665 138.34912471 49.60726324 137.00585738 46.375 135.6640625 C38.36255487 132.32847958 30.39453535 128.8902259 22.421875 125.4609375 C20.66617188 124.70683594 20.66617188 124.70683594 18.875 123.9375 C17.84117187 123.49277344 16.80734375 123.04804687 15.7421875 122.58984375 C10.50648918 120.36549175 5.2510242 118.18792675 0 116 C0 77.72 0 39.44 0 0 Z " fill="#D3D5DA" transform="translate(528,1145)"/>
<path d="M0 0 C29.37 0 58.74 0 89 0 C89.17633769 51.44143355 89.32406064 102.88258225 89.40852264 154.3242315 C89.41852839 160.39624927 89.42888296 166.46826639 89.43945312 172.5402832 C89.44155161 173.74912139 89.44365009 174.95795958 89.44581217 176.20342923 C89.48063043 195.78132424 89.54371129 215.35903149 89.61722237 234.93681508 C89.69201317 255.02281724 89.73646573 275.10872101 89.75270796 295.1948567 C89.76368943 307.59093761 89.79838285 319.9864878 89.86333174 332.38240535 C89.90559311 340.88074699 89.9184068 349.37881394 89.90801102 357.87725305 C89.90288269 362.7819025 89.91078759 367.68562408 89.9536438 372.59010887 C89.99260847 377.08204919 89.99452276 381.57243885 89.96719116 386.06445093 C89.96381397 387.68778096 89.97393852 389.31120819 89.99906546 390.93434726 C90.19760405 404.5533715 90.19760405 404.5533715 85.09661102 410.36771488 C83.76167741 411.61213743 82.39943571 412.82858423 81 414 C80.17242188 414.84949219 79.34484375 415.69898438 78.4921875 416.57421875 C77.66976562 417.37472656 76.84734375 418.17523437 76 419 C73.37054916 421.59968621 70.74817615 424.20648482 68.125 426.8125 C67.44308594 427.48603516 66.76117187 428.15957031 66.05859375 428.85351562 C60.70349122 434.18311767 55.73723082 439.76917018 50.85546875 445.53125 C50.30503906 446.1809375 49.75460937 446.830625 49.1875 447.5 C48.62417969 448.1703125 48.06085938 448.840625 47.48046875 449.53125 C46 451 46 451 44 451 C44 451.66 44 452.32 44 453 C21.22540985 453.23382208 -1.54898181 453.41005109 -24.32452965 453.51812172 C-34.90019277 453.56963964 -45.4751092 453.63984877 -56.05029297 453.75439453 C-65.26997213 453.85421028 -74.48911045 453.9186157 -83.70931494 453.94088495 C-88.58963026 453.9538988 -93.46839863 453.98437903 -98.34821701 454.05730057 C-102.94680716 454.12545926 -107.54322182 454.14606171 -112.14226913 454.13107681 C-113.82492421 454.1338157 -115.50765611 454.15354737 -117.18987274 454.19205475 C-129.85294618 454.46757117 -129.85294618 454.46757117 -135.16292191 450.83805466 C-137.68850003 448.34633608 -139.85675738 445.82231868 -142 443 C-143.17887681 441.65903635 -144.36463235 440.32402686 -145.5625 439 C-146.11035156 438.360625 -146.65820312 437.72125 -147.22265625 437.0625 C-149.2797624 434.67535264 -151.38684772 432.33765244 -153.5 430 C-156.65819341 426.50267172 -159.79949037 422.99925053 -162.80769348 419.37149048 C-164.54600794 417.49109823 -166.20167631 415.97531252 -168.16532898 414.36264038 C-174.70629556 408.68876048 -178.65023416 403.75118228 -179.38349628 394.92452431 C-179.54785044 389.63977917 -179.43540637 384.38480667 -179.26953125 379.1015625 C-179.24523965 376.81233986 -179.22675591 374.52304894 -179.21379089 372.23373413 C-179.16450274 366.25114442 -179.03712872 360.27275553 -178.89263916 354.29180908 C-178.73530592 347.09294445 -178.67641322 339.89266307 -178.60074615 332.69256592 C-178.4753047 321.79213575 -178.22605541 310.90089414 -178 300 C-148.96 300 -119.92 300 -90 300 C-89.6875 328.125 -89.6875 328.125 -89.61206055 336.97705078 C-89.57976695 339.29982101 -89.54639272 341.62257658 -89.51171875 343.9453125 C-89.50547485 345.14534912 -89.49923096 346.34538574 -89.49279785 347.58178711 C-89.49157397 355.78288804 -89.49157397 355.78288804 -86 363 C-81.52462872 366.55315249 -78.58006401 367.50094108 -72.89648438 367.50170898 C-72.21274246 367.50711197 -71.52900055 367.51251495 -70.82453918 367.51808167 C-68.58049265 367.53051597 -66.33774261 367.51411522 -64.09375 367.49609375 C-62.52486097 367.49624886 -60.95597156 367.49773989 -59.38708496 367.50050354 C-56.10537696 367.50188515 -52.82410727 367.48936993 -49.54248047 367.46655273 C-45.34598457 367.43816847 -41.15021644 367.44090845 -36.95366669 367.45364285 C-33.71590003 367.46061365 -30.47830017 367.45279483 -27.24055481 367.44038582 C-25.69367615 367.4358849 -24.14677951 367.43552259 -22.59989929 367.43945122 C-20.43406768 367.44237733 -18.26922226 367.42579162 -16.10351562 367.40405273 C-14.87362915 367.39864975 -13.64374268 367.39324677 -12.37658691 367.38768005 C-8.55925219 366.9493959 -6.1961467 366.13063713 -3 364 C-1.03417528 360.20424114 -0.74715453 357.01534128 -0.73828697 352.77812481 C-0.73082148 351.51763056 -0.72335599 350.2571363 -0.71566427 348.95844525 C-0.717441 347.5621963 -0.71940189 346.16594757 -0.7215271 344.7696991 C-0.71652419 343.28457739 -0.71064841 341.79945841 -0.70397437 340.31434327 C-0.68815969 336.23246109 -0.68474288 332.1506477 -0.68332577 328.06873858 C-0.67963429 323.6672657 -0.66448007 319.26583068 -0.65071106 314.86437988 C-0.6284265 307.23826175 -0.61342041 299.61215707 -0.60334396 291.98601341 C-0.58876459 280.95986537 -0.56322984 269.93376417 -0.53501268 258.90764359 C-0.48953121 241.01892648 -0.452922 223.13020263 -0.421875 205.24145508 C-0.39169501 187.86318783 -0.35734727 170.48493707 -0.31738281 153.10668945 C-0.31492126 152.03567166 -0.31245972 150.96465386 -0.30992357 149.86118098 C-0.29754908 144.48825242 -0.28509253 139.11532404 -0.27259517 133.74239576 C-0.16900707 89.16161665 -0.08144189 44.58082615 0 0 Z " fill="#CED2D7" transform="translate(662,644)"/>
<path d="M0 0 C6.414375 -0.0825 12.82875 -0.165 19.4375 -0.25 C21.44384521 -0.28641602 23.45019043 -0.32283203 25.51733398 -0.36035156 C27.13524308 -0.37205091 28.75316409 -0.38223977 30.37109375 -0.390625 C31.59753601 -0.4213208 31.59753601 -0.4213208 32.84875488 -0.45263672 C39.91445472 -0.45684813 45.95107748 1.38735423 51.375 6.03515625 C51.91125 6.70417969 52.4475 7.37320312 53 8.0625 C53.556875 8.73410156 54.11375 9.40570312 54.6875 10.09765625 C58.55571948 15.70427199 57.59695844 23.49450971 57 30 C54.99848698 35.7198411 50.8890495 39.59892208 46 43 C45.01 43 44.02 43 43 43 C43.72703125 44.08269165 43.72703125 44.08269165 44.46875 45.18725586 C46.2596509 47.85660226 48.04849545 50.52731112 49.8359375 53.19897461 C50.61115167 54.35675567 51.38719196 55.51398401 52.1640625 56.6706543 C53.27819484 58.32977357 54.38914867 59.99102591 55.5 61.65234375 C56.1703125 62.65257568 56.840625 63.65280762 57.53125 64.68334961 C59 67 59 67 59 68 C53.33174356 68.96709588 47.56262995 69.85176702 42 68 C35.9860625 63.31878262 32.33527731 56.02151297 28.56640625 49.53125 C25.21441893 46.25449432 19.36915167 47.1879205 15 47 C15 53.93 15 60.86 15 68 C10.05 68 5.1 68 0 68 C0 45.56 0 23.12 0 0 Z " fill="#FAFAF9" transform="translate(979,1145)"/>
<path d="M0 0 C6.22875 -0.0825 12.4575 -0.165 18.875 -0.25 C21.79255127 -0.30462402 21.79255127 -0.30462402 24.76904297 -0.36035156 C44.00271749 -0.57266014 44.00271749 -0.57266014 50.91357422 5.75097656 C56.09165795 11.25577842 57.48534893 16.63867177 57.3046875 24.0859375 C56.70504862 29.82094525 55.18207804 34.80035996 51.05859375 38.95703125 C45.91730094 43 45.91730094 43 42 43 C42.62044189 43.86951294 42.62044189 43.86951294 43.25341797 44.7565918 C45.13260747 47.39648101 47.00385728 50.04190193 48.875 52.6875 C49.85146484 54.05551758 49.85146484 54.05551758 50.84765625 55.45117188 C51.47285156 56.33740234 52.09804687 57.22363281 52.7421875 58.13671875 C53.3182373 58.94842529 53.89428711 59.76013184 54.48779297 60.59643555 C55.99955062 62.99928574 57.03407179 65.3364426 58 68 C52.34934997 68.89429983 46.551075 69.76732677 41 68 C36.52533144 64.56993633 33.73937729 59.57414698 31.00488281 54.72851562 C29.95331402 52.83888786 29.95331402 52.83888786 28.2109375 50.640625 C27 49 27 49 27 47 C22.71 47 18.42 47 14 47 C14 53.93 14 60.86 14 68 C9.38 68 4.76 68 0 68 C0 45.56 0 23.12 0 0 Z " fill="#FBFAF9" transform="translate(1133,1145)"/>
<path d="M0 0 C14 0 14 0 17.82421875 3.2265625 C18.82517553 4.66134478 19.77858529 6.13021282 20.6875 7.625 C21.75507531 9.19108342 22.82410969 10.75617312 23.89453125 12.3203125 C24.41096191 13.10825195 24.92739258 13.89619141 25.45947266 14.70800781 C27.75185591 18.11860908 30.29859383 21.30185771 32.875 24.5 C36.94681169 29.64359013 40.97221149 34.82141477 45 40 C45.33 26.8 45.66 13.6 46 0 C50.95 0 55.9 0 61 0 C61 22.44 61 44.88 61 68 C47 68 47 68 43.4296875 65.02734375 C42.53131878 63.69444161 41.68089843 62.32826316 40.875 60.9375 C39.90154023 59.46279094 38.9248907 57.99018325 37.9453125 56.51953125 C37.22263184 55.3895874 37.22263184 55.3895874 36.48535156 54.23681641 C34.12775676 50.68647394 31.44965788 47.41823926 28.75 44.125 C27.82740015 42.98235572 26.90551718 41.83913221 25.984375 40.6953125 C24.50710938 38.86613281 24.50710938 38.86613281 23 37 C20.36 33.7 17.72 30.4 15 27 C14.67 40.53 14.34 54.06 14 68 C9.38 68 4.76 68 0 68 C0 45.56 0 23.12 0 0 Z " fill="#F8F9F9" transform="translate(745,1145)"/>
<path d="M0 0 C8.6315625 -0.12375 8.6315625 -0.12375 17.4375 -0.25 C19.23501709 -0.28641602 21.03253418 -0.32283203 22.88452148 -0.36035156 C32.66328808 -0.47613558 40.12280151 -0.13501611 47.875 6.4375 C53.78589494 13.5653439 54.84432058 19.89339941 54 29 C52.51612148 35.24838005 50.06755623 39.6958079 45.07421875 43.74609375 C38.20392855 47.89932003 32.99093068 48.39885256 25.0625 48.1875 C24.09248047 48.17396484 23.12246094 48.16042969 22.12304688 48.14648438 C19.74845519 48.11139189 17.3741525 48.057594 15 48 C15 54.6 15 61.2 15 68 C10.05 68 5.1 68 0 68 C0 45.56 0 23.12 0 0 Z " fill="#F8F8F7" transform="translate(1058,1145)"/>
<path d="M0 0 C5.87871597 4.89892997 11.88757487 9.95075039 16.5703125 16.04296875 C20.97580386 21.76567989 26.24451121 24.4932287 32.6640625 27.45703125 C36.25276084 29.11690929 39.60652485 30.98007431 43 33 C43 32.01 43 31.02 43 30 C46.875 31.875 46.875 31.875 48 33 C48.33 23.76 48.66 14.52 49 5 C49.33 5 49.66 5 50 5 C50 15.23 50 25.46 50 36 C54.22639892 31.93613784 54.22639892 31.93613784 57.23828125 27.44921875 C57.58310547 26.83369141 57.92792969 26.21816406 58.28320312 25.58398438 C58.62287109 24.95814453 58.96253906 24.33230469 59.3125 23.6875 C59.67150391 23.04232422 60.03050781 22.39714844 60.40039062 21.73242188 C61.27445475 20.15910645 62.13830783 18.58012535 63 17 C63.495 17.99 63.495 17.99 64 19 C62.75485356 21.7051763 61.45932979 24.31238353 60.0625 26.9375 C59.29788111 28.3812128 58.5385297 29.82773099 57.78515625 31.27734375 C57.44363525 31.91921631 57.10211426 32.56108887 56.75024414 33.22241211 C55.80557842 35.13908097 55.80557842 35.13908097 56 38 C56.66008057 37.79842285 57.32016113 37.5968457 58.00024414 37.38916016 C61.02080065 36.46713177 64.04164759 35.54605845 67.0625 34.625 C68.10083984 34.30789063 69.13917969 33.99078125 70.20898438 33.6640625 C73.13795043 32.77142523 76.06837942 31.88387664 79 31 C79.72759521 30.77940918 80.45519043 30.55881836 81.20483398 30.33154297 C84.58755013 29.32948722 87.45937776 28.78541683 91 29 C88.32443009 30.78371328 86.62581229 31.53600113 83.61328125 32.40234375 C82.75669922 32.65306641 81.90011719 32.90378906 81.01757812 33.16210938 C80.12490234 33.41798828 79.23222656 33.67386719 78.3125 33.9375 C72.09894634 35.73048855 66.02722914 37.6494508 60 40 C64.6273711 44.36840391 68.61613035 46.21845271 74.703125 47.90234375 C75.53978699 48.14739151 76.37644897 48.39243927 77.23846436 48.64491272 C79.90513521 49.42318447 82.577035 50.1811603 85.25 50.9375 C88.73602665 51.94094533 92.21968919 52.9524462 95.703125 53.96484375 C96.55571899 54.2110849 97.40831299 54.45732605 98.28674316 54.71102905 C106.94034657 57.22995346 115.47519556 60.07860012 124 63 C119.89496686 64.36834438 116.94725399 63.03139246 112.96484375 61.796875 C112.17155167 61.55841858 111.37825958 61.31996216 110.56092834 61.07427979 C108.01724772 60.30763684 105.47741078 59.52903108 102.9375 58.75 C101.25349637 58.2400883 99.56925384 57.73096485 97.88476562 57.22265625 C85.80065307 53.56953607 85.80065307 53.56953607 80.76660156 51.97729492 C79.46480957 51.56894409 79.46480957 51.56894409 78.13671875 51.15234375 C77.43893311 50.92796631 76.74114746 50.70358887 76.0222168 50.47241211 C72.33322349 49.61062266 68.76696778 49.81772737 65 50 C65.99 51.423125 65.99 51.423125 67 52.875 C69 56 69 56 69 58 C69.556875 58.226875 70.11375 58.45375 70.6875 58.6875 C73.67961603 60.38572802 75.61600535 62.50764196 78 65 C81.93923222 69.03241836 85.89635264 72.96537998 90.1875 76.625 C93.5405052 79.50183878 96.28382588 82.51990191 99 86 C95.22340585 84.37633363 92.42584161 81.97003212 89.3125 79.3125 C79.23789814 70.80684381 68.67587643 63.09981751 57.96362305 55.42285156 C55.95953781 53.97068089 53.97992441 52.48494331 52 51 C51.67 57.6 51.34 64.2 51 71 C50.67 71 50.34 71 50 71 C49.67 63.41 49.34 55.82 49 48 C41.89978612 51.40616691 41.89978612 51.40616691 36.5 56.109375 C35.75878906 56.86347656 35.01757812 57.61757812 34.25390625 58.39453125 C33.13822266 59.56048828 33.13822266 59.56048828 32 60.75 C31.22527344 61.54277344 30.45054688 62.33554688 29.65234375 63.15234375 C27.75872903 65.09271439 25.87515713 67.0418148 24 69 C24 66 24 66 25.4609375 64.28125 C26.09257813 63.6934375 26.72421875 63.105625 27.375 62.5 C29.65041801 60.36503989 31.24747563 58.62878656 33 56 C31.26713745 56.00785522 31.26713745 56.00785522 29.49926758 56.01586914 C25.20353982 56.0340015 20.90781542 56.04546212 16.61206055 56.05493164 C14.75463288 56.05995303 12.89720915 56.06677141 11.03979492 56.07543945 C8.36636379 56.08760117 5.69298504 56.09325033 3.01953125 56.09765625 C2.19226028 56.10281754 1.36498932 56.10797882 0.51264954 56.11329651 C-0.65799797 56.11340981 -0.65799797 56.11340981 -1.85229492 56.11352539 C-2.53402267 56.115746 -3.21575043 56.11796661 -3.9181366 56.12025452 C-6 56 -6 56 -11 55 C-11 51.37 -11 47.74 -11 44 C-11.33 47.3 -11.66 50.6 -12 54 C-12.33 54 -12.66 54 -13 54 C-13.04898437 53.19175781 -13.09796875 52.38351562 -13.1484375 51.55078125 C-13.22320313 50.48214844 -13.29796875 49.41351562 -13.375 48.3125 C-13.44460938 47.25675781 -13.51421875 46.20101563 -13.5859375 45.11328125 C-13.86256205 42.03319553 -13.86256205 42.03319553 -15.03125 39.46875 C-16.74641713 35.09784021 -16.11191872 30.64462706 -16 26 C-16.33 30.62 -16.66 35.24 -17 40 C-17.33 40 -17.66 40 -18 40 C-18 35.38 -18 30.76 -18 26 C-19.65 25.67 -21.3 25.34 -23 25 C-23 24.34 -23 23.68 -23 23 C-23.99 23 -24.98 23 -26 23 C-26.33 24.32 -26.66 25.64 -27 27 C-27.37125 26.505 -27.7425 26.01 -28.125 25.5 C-30.74694393 23.40244486 -32.73842472 23.78256165 -36 24 C-36 23.34 -36 22.68 -36 22 C-18.51 21.34 -1.02 20.68 17 20 C14.69 17.69 12.38 15.38 10 13 C8.73146137 11.59990922 7.47664969 10.18693249 6.25 8.75 C4.64853233 6.87912655 3.08728877 5.08248388 1.296875 3.390625 C0 2 0 2 0 0 Z " fill="#FDEE03" transform="translate(1526,1038)"/>
<path d="M0 0 C17.16 0 34.32 0 52 0 C52 4.29 52 8.58 52 13 C39.79 13 27.58 13 15 13 C15 17.29 15 21.58 15 26 C25.89 26 36.78 26 48 26 C48 30.62 48 35.24 48 40 C37.11 40 26.22 40 15 40 C15 44.62 15 49.24 15 54 C27.54 54 40.08 54 53 54 C53 58.62 53 63.24 53 68 C35.51 68 18.02 68 0 68 C0 45.56 0 23.12 0 0 Z " fill="#F7F7F7" transform="translate(904,1145)"/>
<path d="M0 0 C16.83 0 33.66 0 51 0 C51 4.29 51 8.58 51 13 C39.12 13 27.24 13 15 13 C15 17.29 15 21.58 15 26 C25.89 26 36.78 26 48 26 C48 30.62 48 35.24 48 40 C37.11 40 26.22 40 15 40 C15 44.62 15 49.24 15 54 C27.21 54 39.42 54 52 54 C52 58.62 52 63.24 52 68 C34.84 68 17.68 68 0 68 C0 45.56 0 23.12 0 0 Z " fill="#F8F8F8" transform="translate(1327,1145)"/>
<path d="M0 0 C16.83 0 33.66 0 51 0 C51 4.29 51 8.58 51 13 C38.79 13 26.58 13 14 13 C14 17.62 14 22.24 14 27 C24.56 27 35.12 27 46 27 C46 31.29 46 35.58 46 40 C35.44 40 24.88 40 14 40 C14 44.62 14 49.24 14 54 C26.54 54 39.08 54 52 54 C52 58.62 52 63.24 52 68 C34.84 68 17.68 68 0 68 C0 45.56 0 23.12 0 0 Z " fill="#FAFBFA" transform="translate(671,1145)"/>
<path d="M0 0 C3.1875 2.25 3.1875 2.25 5 4 C3.5140084 8.59306496 1.14985318 11.43569245 -2 15 C-2.639375 14.731875 -3.27875 14.46375 -3.9375 14.1875 C-4.948125 13.795625 -5.95875 13.40375 -7 13 C-7.66644531 12.73574219 -8.33289062 12.47148438 -9.01953125 12.19921875 C-14.20536086 10.28291394 -19.46448646 8.86622012 -25 10 C-26.8052168 11.24256816 -26.8052168 11.24256816 -28 13 C-28.25048636 16.12549017 -28.25048636 16.12549017 -28 19 C-23.61049961 21.38383637 -19.4744119 22.77264127 -14.625 23.9375 C-5.30862255 26.32023136 1.47900867 28.76627245 7 37 C8.89309565 42.67928694 9.146748 48.96769008 7.01171875 54.61328125 C4.10436757 59.48616563 0.51121641 62.91040542 -4.69921875 65.1875 C-15.69558115 67.8942969 -28.97815365 67.54211645 -39 62 C-41.48670258 60.44910599 -43.70528154 58.83577477 -46 57 C-45.06981474 55.53699018 -44.13055973 54.07974421 -43.1875 52.625 C-42.40439453 51.40683594 -42.40439453 51.40683594 -41.60546875 50.1640625 C-40 48 -40 48 -37 46 C-36.48050781 46.34933594 -35.96101563 46.69867187 -35.42578125 47.05859375 C-34.72839844 47.51363281 -34.03101563 47.96867187 -33.3125 48.4375 C-32.62800781 48.88996094 -31.94351562 49.34242187 -31.23828125 49.80859375 C-26.81974949 52.16051729 -22.30650295 52.18197927 -17.375 52.25 C-16.24835938 52.27578125 -15.12171875 52.3015625 -13.9609375 52.328125 C-11.02609664 52.24187511 -11.02609664 52.24187511 -9.11328125 50.68359375 C-7.44633332 48.16270056 -7.80403251 45.93951228 -8 43 C-14.76987547 40.06742722 -21.55124391 37.93724136 -28.703125 36.125 C-35.27220494 33.88341822 -39.65336664 30.09394669 -43.0859375 24.10546875 C-44.98751019 19.72535047 -44.60384174 15.11687701 -43.3125 10.58984375 C-40.6394517 3.9183607 -36.94031518 0.550348 -30.5625 -2.8125 C-20.56803058 -6.14398981 -9.2509705 -4.74573183 0 0 Z " fill="#F8F8F7" transform="translate(1296,1148)"/>
<path d="M0 0 C18.48 0 36.96 0 56 0 C56 4.62 56 9.24 56 14 C49.4 14 42.8 14 36 14 C36 31.82 36 49.64 36 68 C30.72 68 25.44 68 20 68 C20 50.18 20 32.36 20 14 C13.4 14 6.8 14 0 14 C0 9.38 0 4.76 0 0 Z " fill="#F4F4F3" transform="translate(827,1145)"/>
<path d="M0 0 C7.98342625 6.65285521 14.94737587 13.52632622 21 22 C17.37 22.33 13.74 22.66 10 23 C10 23.66 10 24.32 10 25 C10.99 25.33 11.98 25.66 13 26 C13.99 31.61 14.98 37.22 16 43 C17.44375 43.37125 18.8875 43.7425 20.375 44.125 C22.86328125 44.93359375 22.86328125 44.93359375 25 46 C26.5625 49.1875 26.5625 49.1875 27 52 C30.3 52.33 33.6 52.66 37 53 C36.04767365 56.80930541 35.86073419 57.51381531 33.27734375 60.015625 C32.73916016 60.54414062 32.20097656 61.07265625 31.64648438 61.6171875 C31.08251953 62.15601563 30.51855469 62.69484375 29.9375 63.25 C29.36966797 63.80429688 28.80183594 64.35859375 28.21679688 64.9296875 C26.81787531 66.29334214 25.40980886 67.64760417 24 69 C24 66 24 66 25.4609375 64.28125 C26.09257813 63.6934375 26.72421875 63.105625 27.375 62.5 C29.65041801 60.36503989 31.24747563 58.62878656 33 56 C31.26713745 56.00785522 31.26713745 56.00785522 29.49926758 56.01586914 C25.20353982 56.0340015 20.90781542 56.04546212 16.61206055 56.05493164 C14.75463288 56.05995303 12.89720915 56.06677141 11.03979492 56.07543945 C8.36636379 56.08760117 5.69298504 56.09325033 3.01953125 56.09765625 C2.19226028 56.10281754 1.36498932 56.10797882 0.51264954 56.11329651 C-0.65799797 56.11340981 -0.65799797 56.11340981 -1.85229492 56.11352539 C-2.53402267 56.115746 -3.21575043 56.11796661 -3.9181366 56.12025452 C-6 56 -6 56 -11 55 C-11 51.37 -11 47.74 -11 44 C-11.33 47.3 -11.66 50.6 -12 54 C-12.33 54 -12.66 54 -13 54 C-13.04898437 53.19175781 -13.09796875 52.38351562 -13.1484375 51.55078125 C-13.22320313 50.48214844 -13.29796875 49.41351562 -13.375 48.3125 C-13.44460938 47.25675781 -13.51421875 46.20101563 -13.5859375 45.11328125 C-13.86256205 42.03319553 -13.86256205 42.03319553 -15.03125 39.46875 C-16.74641713 35.09784021 -16.11191872 30.64462706 -16 26 C-16.33 30.62 -16.66 35.24 -17 40 C-17.33 40 -17.66 40 -18 40 C-18 35.38 -18 30.76 -18 26 C-19.65 25.67 -21.3 25.34 -23 25 C-23 24.34 -23 23.68 -23 23 C-23.99 23 -24.98 23 -26 23 C-26.33 24.32 -26.66 25.64 -27 27 C-27.37125 26.505 -27.7425 26.01 -28.125 25.5 C-30.74694393 23.40244486 -32.73842472 23.78256165 -36 24 C-36 23.34 -36 22.68 -36 22 C-18.51 21.34 -1.02 20.68 17 20 C14.69 17.69 12.38 15.38 10 13 C8.73146137 11.59990922 7.47664969 10.18693249 6.25 8.75 C4.64853233 6.87912655 3.08728877 5.08248388 1.296875 3.390625 C0 2 0 2 0 0 Z " fill="#F54102" transform="translate(1526,1038)"/>
<path d="M0 0 C4.95 0 9.9 0 15 0 C15 22.44 15 44.88 15 68 C10.05 68 5.1 68 0 68 C0 45.56 0 23.12 0 0 Z " fill="#F8F8F7" transform="translate(1213,1145)"/>
<path d="M0 0 C0.33 0 0.66 0 1 0 C1 10.23 1 20.46 1 31 C5.22639892 26.93613784 5.22639892 26.93613784 8.23828125 22.44921875 C8.75551758 21.52592773 8.75551758 21.52592773 9.28320312 20.58398438 C9.62287109 19.95814453 9.96253906 19.33230469 10.3125 18.6875 C10.67150391 18.04232422 11.03050781 17.39714844 11.40039062 16.73242188 C12.27445475 15.15910645 13.13830783 13.58012535 14 12 C14.33 12.66 14.66 13.32 15 14 C13.75485356 16.7051763 12.45932979 19.31238353 11.0625 21.9375 C10.29788111 23.3812128 9.5385297 24.82773099 8.78515625 26.27734375 C8.44363525 26.91921631 8.10211426 27.56108887 7.75024414 28.22241211 C6.80557842 30.13908097 6.80557842 30.13908097 7 33 C7.99012085 32.69763428 7.99012085 32.69763428 9.00024414 32.38916016 C12.02080065 31.46713177 15.04164759 30.54605845 18.0625 29.625 C19.10083984 29.30789063 20.13917969 28.99078125 21.20898438 28.6640625 C24.13795043 27.77142523 27.06837942 26.88387664 30 26 C30.72759521 25.77940918 31.45519043 25.55881836 32.20483398 25.33154297 C35.58755013 24.32948722 38.45937776 23.78541683 42 24 C39.32443009 25.78371328 37.62581229 26.53600113 34.61328125 27.40234375 C33.75669922 27.65306641 32.90011719 27.90378906 32.01757812 28.16210938 C31.12490234 28.41798828 30.23222656 28.67386719 29.3125 28.9375 C23.09894634 30.73048855 17.02722914 32.6494508 11 35 C15.6273711 39.36840391 19.61613035 41.21845271 25.703125 42.90234375 C26.53978699 43.14739151 27.37644897 43.39243927 28.23846436 43.64491272 C30.90513521 44.42318447 33.577035 45.1811603 36.25 45.9375 C39.73602665 46.94094533 43.21968919 47.9524462 46.703125 48.96484375 C47.55571899 49.2110849 48.40831299 49.45732605 49.28674316 49.71102905 C57.94034657 52.22995346 66.47519556 55.07860012 75 58 C70.89496686 59.36834438 67.94725399 58.03139246 63.96484375 56.796875 C63.17155167 56.55841858 62.37825958 56.31996216 61.56092834 56.07427979 C59.01724772 55.30763684 56.47741078 54.52903108 53.9375 53.75 C52.25349637 53.2400883 50.56925384 52.73096485 48.88476562 52.22265625 C36.80065307 48.56953607 36.80065307 48.56953607 31.76660156 46.97729492 C30.46480957 46.56894409 30.46480957 46.56894409 29.13671875 46.15234375 C28.43893311 45.92796631 27.74114746 45.70358887 27.0222168 45.47241211 C23.33322349 44.61062266 19.76696778 44.81772737 16 45 C16.66 45.94875 17.32 46.8975 18 47.875 C20 51 20 51 20 53 C20.556875 53.226875 21.11375 53.45375 21.6875 53.6875 C24.67961603 55.38572802 26.61600535 57.50764196 29 60 C32.93923222 64.03241836 36.89635264 67.96537998 41.1875 71.625 C44.5405052 74.50183878 47.28382588 77.51990191 50 81 C46.22340585 79.37633363 43.42584161 76.97003212 40.3125 74.3125 C30.23789814 65.80684381 19.67587643 58.09981751 8.96362305 50.42285156 C6.95953781 48.97068089 4.97992441 47.48494331 3 46 C2.67 52.6 2.34 59.2 2 66 C1.67 66 1.34 66 1 66 C0.67 58.41 0.34 50.82 0 43 C-2.31 43.99 -4.62 44.98 -7 46 C-6.875 44.125 -6.875 44.125 -6 42 C-2.9375 40.75 -2.9375 40.75 0 40 C0 39.34 0 38.68 0 38 C0.99 38 1.98 38 3 38 C3 36.68 3 35.36 3 34 C2.01 34 1.02 34 0 34 C-0.9899261 29.9569685 -1.04350619 26.31954499 -0.87890625 22.16796875 C-0.83056641 20.87568359 -0.78222656 19.58339844 -0.73242188 18.25195312 C-0.67590949 16.89713006 -0.61926724 15.54231241 -0.5625 14.1875 C-0.50922394 12.81317193 -0.45648399 11.43882297 -0.40429688 10.06445312 C-0.2748033 6.70939235 -0.13984284 3.35464273 0 0 Z " fill="#D12F1E" transform="translate(1575,1043)"/>
<path d="M0 0 C3.37635286 -0.13541522 6.74723976 -0.23431111 10.125 -0.3125 C11.07632813 -0.35439453 12.02765625 -0.39628906 13.0078125 -0.43945312 C20.96505739 -0.57759974 20.96505739 -0.57759974 24.6171875 2.39453125 C27.20693842 5.22627529 27.91600476 6.0550535 28.25 9.8125 C27.96536066 13.44165156 27.22214094 15.14296165 25 18 C21.93232785 19.92541834 19.60535996 20.23908976 16.015625 20.1953125 C15.08105469 20.18886719 14.14648438 20.18242188 13.18359375 20.17578125 C12.21550781 20.15902344 11.24742187 20.14226562 10.25 20.125 C9.26644531 20.11597656 8.28289063 20.10695313 7.26953125 20.09765625 C4.84624974 20.07412925 2.42309369 20.03825937 0 20 C0 13.4 0 6.8 0 0 Z " fill="#24262A" transform="translate(994,1158)"/>
<path d="M0 0 C3.01125 -0.0825 6.0225 -0.165 9.125 -0.25 C10.06230957 -0.28641602 10.99961914 -0.32283203 11.96533203 -0.36035156 C17.5015014 -0.43345966 20.61058179 0.30796599 25 4 C27.39286884 6.39286884 27.32050616 7.09447094 27.375 10.375 C27.30982816 13.75307372 27.21347457 14.71536724 25.125 17.5 C21.88566537 19.78658915 20.13722769 20.1213086 16.2109375 20.09765625 C15.26992187 20.09443359 14.32890625 20.09121094 13.359375 20.08789062 C11.88210938 20.07532227 11.88210938 20.07532227 10.375 20.0625 C9.38242188 20.05798828 8.38984375 20.05347656 7.3671875 20.04882812 C4.91143278 20.03702161 2.45570894 20.01908582 0 20 C0 13.4 0 6.8 0 0 Z " fill="#25272C" transform="translate(1147,1158)"/>
<path d="M0 0 C2.51625 -0.0825 5.0325 -0.165 7.625 -0.25 C8.79603271 -0.30462402 8.79603271 -0.30462402 9.99072266 -0.36035156 C15.09511214 -0.44069483 18.00473303 0.56862957 22 4 C24.02069861 6.88507676 24.26445742 9.02830662 23.9375 12.5 C23.88464844 13.2528125 23.83179688 14.005625 23.77734375 14.78125 C22.58748652 18.1774254 21.11311223 19.21418368 18 21 C14.87174221 21.46630604 11.84102127 21.37842523 8.6875 21.25 C4.3871875 21.12625 4.3871875 21.12625 0 21 C0 14.07 0 7.14 0 0 Z " fill="#202428" transform="translate(1073,1158)"/>
<path d="M0 0 C0.99 0 1.98 0 3 0 C5.20914 3.31371 5.22481553 4.3446021 5.125 8.1875 C5.10695313 9.08855469 5.08890625 9.98960938 5.0703125 10.91796875 C5.04710937 11.60503906 5.02390625 12.29210938 5 13 C7.78054651 13.78670772 10.23960693 14.12265947 13.12597656 14.11352539 C14.32676849 14.11341209 14.32676849 14.11341209 15.55181885 14.11329651 C16.40612488 14.10813522 17.26043091 14.10297394 18.140625 14.09765625 C19.46389801 14.09553383 19.46389801 14.09553383 20.81390381 14.09336853 C23.62597065 14.08778001 26.4379573 14.07522961 29.25 14.0625 C31.15885302 14.05748352 33.06770728 14.05292087 34.9765625 14.04882812 C39.65107247 14.03781434 44.32552265 14.02055758 49 14 C46.62686008 17.62011708 44.37430589 20.87085972 41.25 23.875 C40.63640625 24.47054688 40.0228125 25.06609375 39.390625 25.6796875 C38.93171875 26.11539062 38.4728125 26.55109375 38 27 C37.505 25.515 37.505 25.515 37 24 C37.99 23.67 38.98 23.34 40 23 C39.814375 22.195625 39.62875 21.39125 39.4375 20.5625 C39.2209375 19.2940625 39.2209375 19.2940625 39 18 C39.495 17.505 39.495 17.505 40 17 C38.12508307 16.97269538 36.25004775 16.95346756 34.375 16.9375 C33.33085938 16.92589844 32.28671875 16.91429687 31.2109375 16.90234375 C28.04814906 16.92279096 28.04814906 16.92279096 25.16529846 17.49327087 C22.10898338 17.98255297 19.2362032 18.15673737 16.14428711 18.20532227 C15.0112767 18.22526749 13.8782663 18.24521271 12.71092224 18.26576233 C11.49534134 18.28247482 10.27976044 18.29918732 9.02734375 18.31640625 C7.75387589 18.33718735 6.48040802 18.35796844 5.16835022 18.37937927 C2.46762869 18.42259436 -0.23305232 18.46413714 -2.93383789 18.50268555 C-6.32900613 18.55118938 -9.72406312 18.60492658 -13.11911964 18.66065407 C-28.41372268 18.91075879 -43.70337713 19.06710447 -59 19 C-59 18.67 -59 18.34 -59 18 C-42.00999466 16.39425868 -25.05757874 15.4883804 -8 15 C-7.67 14.34 -7.34 13.68 -7 13 C-6.01 13 -5.02 13 -4 13 C-4 13.66 -4 14.32 -4 15 C-3.34 15 -2.68 15 -2 15 C-1.34 10.05 -0.68 5.1 0 0 Z " fill="#391B1C" transform="translate(1511,1079)"/>
<path d="M0 0 C20.46 0 40.92 0 62 0 C62 27.06 62 54.12 62 82 C61.67 82 61.34 82 61 82 C61 55.27 61 28.54 61 1 C41.2 1 21.4 1 1 1 C1.32792152 13.14553988 1.32792152 13.14553988 1.65820312 25.29101562 C1.69930325 26.82942483 1.74032403 28.36783615 1.78125 29.90625 C1.8136377 31.07559082 1.8136377 31.07559082 1.84667969 32.26855469 C1.94459229 35.98457121 2.00935461 39.6949376 1.99780273 43.41235352 C1.99950511 46.19195262 2.12840794 48.7065664 2.5625 51.4375 C2.706875 52.613125 2.85125 53.78875 3 55 C2.505 55.495 2.505 55.495 2 56 C1.91205821 57.48204367 1.89306715 58.96825931 1.90234375 60.45288086 C1.90564697 61.40154526 1.9089502 62.35020966 1.91235352 63.32762146 C1.92065186 64.36290482 1.9289502 65.39818817 1.9375 66.46484375 C1.94128662 67.52731827 1.94507324 68.58979279 1.94897461 69.6844635 C1.9653423 74.24484938 1.99322572 78.80514684 2.02050781 83.36547852 C2.03872449 86.69026262 2.05074575 90.01503147 2.0625 93.33984375 C2.07079834 94.35690903 2.07909668 95.3739743 2.08764648 96.42185974 C2.10879938 102.67850443 1.75668953 108.78871571 1 115 C1.66 115.33 2.32 115.66 3 116 C2.01 116 1.02 116 0 116 C0 77.72 0 39.44 0 0 Z " fill="#84878E" transform="translate(528,1145)"/>
<path d="M0 0 C5.61 0 11.22 0 17 0 C17 0.33 17 0.66 17 1 C15.35 1 13.7 1 12 1 C12.99 1.66 13.98 2.32 15 3 C15.26093495 4.86589198 15.51048794 6.73501389 15.66992188 8.61230469 C16.00780784 12.23733836 16.40304567 15.69307328 18 19 C21.30365666 21.25012835 24.09586268 22.15351677 27.96875 23.078125 C31 24 31 24 32.96875 25.921875 C34 28 34 28 33 31 C29.37 31 25.74 31 22 31 C21.87625 30.0925 21.7525 29.185 21.625 28.25 C21.08875 27.1775 20.5525 26.105 20 25 C18.37189181 24.500563 16.72163353 24.0714916 15.0625 23.6875 C12.35546875 22.80859375 12.35546875 22.80859375 10 21 C7.7963099 15.68421764 7.48357168 9.67886743 7 4 C5.68 3.67 4.36 3.34 3 3 C3 2.34 3 1.68 3 1 C2.01 0.67 1.02 0.34 0 0 Z " fill="#FC9D02" transform="translate(1531,1060)"/>
<path d="M0 0 C0.99 0 1.98 0 3 0 C3.39832031 0.73605469 3.79664063 1.47210937 4.20703125 2.23046875 C4.73683594 3.20628906 5.26664063 4.18210937 5.8125 5.1875 C6.33457031 6.15042969 6.85664062 7.11335938 7.39453125 8.10546875 C9.87471568 13.34294453 9.87471568 13.34294453 14 17 C15.38234634 20.05268149 16.66052158 23.1270555 17.875 26.25 C19.22819845 28.63908446 19.22819845 28.63908446 24 31 C24.33 21.1 24.66 11.2 25 1 C25.66 1 26.32 1 27 1 C28.4764236 3.9528472 28.22272939 6.68448983 28.31640625 9.9765625 C28.33718735 10.66181 28.35796844 11.3470575 28.37937927 12.05307007 C28.44480185 14.24361069 28.50372554 16.43427189 28.5625 18.625 C28.60569218 20.1093875 28.6493067 21.59376278 28.69335938 23.078125 C28.80047553 26.71862084 28.90176362 30.35925251 29 34 C29.66 34.33 30.32 34.66 31 35 C29.68 35.66 28.36 36.32 27 37 C26.21625 36.195625 25.4325 35.39125 24.625 34.5625 C22.28017144 32.01309583 22.28017144 32.01309583 20 31 C20 31.99 20 32.98 20 34 C15.49197399 32.74194623 12.5087188 31.09592835 9 28 C10.32 28 11.64 28 13 28 C12.401875 26.824375 11.80375 25.64875 11.1875 24.4375 C9.63154805 21.33643897 8.25411515 18.20581143 6.92578125 15 C5.23208429 11.34104285 3.19440743 7.86118098 1.20703125 4.35546875 C0 2 0 2 0 0 Z " fill="#521D10" transform="translate(1549,1037)"/>
<path d="M0 0 C28.38 0 56.76 0 86 0 C86 40.92 86 81.84 86 124 C84.68 124.33 83.36 124.66 82 125 C81.375 122.125 81.375 122.125 81 119 C81.66 118.34 82.32 117.68 83 117 C83.66 117.33 84.32 117.66 85 118 C84.89284954 103.04035567 84.7801042 88.08076136 84.66066074 73.1212101 C84.60533471 66.17555052 84.55185374 59.22988581 84.50268555 52.28417969 C84.45526662 45.58630793 84.40274676 38.88849423 84.34705925 32.19068527 C84.32661484 29.63013385 84.30790528 27.06956799 84.29092598 24.50899124 C84.26692811 20.93383798 84.23686726 17.35878489 84.20532227 13.78369141 C84.1995668 12.71554703 84.19381134 11.64740265 84.18788147 10.54689026 C84.17809265 9.57651321 84.16830383 8.60613617 84.15821838 7.60635376 C84.15176583 6.7601478 84.14531328 5.91394184 84.1386652 5.04209328 C84.12731117 2.93329653 84.12731117 2.93329653 83 1 C55.61 1 28.22 1 0 1 C0 0.67 0 0.34 0 0 Z " fill="#6A6D71" transform="translate(1434,643)"/>
<path d="M0 0 C0.33 0 0.66 0 1 0 C1 10.23 1 20.46 1 31 C5.22639892 26.93613784 5.22639892 26.93613784 8.23828125 22.44921875 C8.75551758 21.52592773 8.75551758 21.52592773 9.28320312 20.58398438 C9.62287109 19.95814453 9.96253906 19.33230469 10.3125 18.6875 C10.67150391 18.04232422 11.03050781 17.39714844 11.40039062 16.73242188 C12.27445475 15.15910645 13.13830783 13.58012535 14 12 C14.33 12.66 14.66 13.32 15 14 C13.75485356 16.7051763 12.45932979 19.31238353 11.0625 21.9375 C10.29788111 23.3812128 9.5385297 24.82773099 8.78515625 26.27734375 C8.44363525 26.91921631 8.10211426 27.56108887 7.75024414 28.22241211 C6.80557842 30.13908097 6.80557842 30.13908097 7 33 C7.99012085 32.69763428 7.99012085 32.69763428 9.00024414 32.38916016 C12.02080065 31.46713177 15.04164759 30.54605845 18.0625 29.625 C19.10083984 29.30789063 20.13917969 28.99078125 21.20898438 28.6640625 C24.13795043 27.77142523 27.06837942 26.88387664 30 26 C30.72759521 25.77940918 31.45519043 25.55881836 32.20483398 25.33154297 C35.58755013 24.32948722 38.45937776 23.78541683 42 24 C39.35022786 25.76651476 37.62561199 26.54942773 34.6484375 27.4375 C33.79636719 27.69273438 32.94429687 27.94796875 32.06640625 28.2109375 C31.17824219 28.47132812 30.29007813 28.73171875 29.375 29 C28.07755859 29.39058594 28.07755859 29.39058594 26.75390625 29.7890625 C21.20834222 31.43527191 15.66010239 32.80598246 10 34 C10 34.66 10 35.32 10 36 C9.21625 36.268125 8.4325 36.53625 7.625 36.8125 C4.71885077 37.84814432 4.71885077 37.84814432 3 41 C2.63201307 43.71075544 2.63201307 43.71075544 2.5859375 46.76171875 C2.52792969 48.43911133 2.52792969 48.43911133 2.46875 50.15039062 C2.4378125 51.31763672 2.406875 52.48488281 2.375 53.6875 C2.31699219 55.45577148 2.31699219 55.45577148 2.2578125 57.25976562 C2.16345609 60.17301977 2.07786839 63.08626607 2 66 C1.67 66 1.34 66 1 66 C0.67 58.41 0.34 50.82 0 43 C-2.31 43.99 -4.62 44.98 -7 46 C-6.875 44.125 -6.875 44.125 -6 42 C-2.9375 40.75 -2.9375 40.75 0 40 C0 39.34 0 38.68 0 38 C0.99 38 1.98 38 3 38 C3 36.68 3 35.36 3 34 C2.01 34 1.02 34 0 34 C-0.9899261 29.9569685 -1.04350619 26.31954499 -0.87890625 22.16796875 C-0.83056641 20.87568359 -0.78222656 19.58339844 -0.73242188 18.25195312 C-0.67590949 16.89713006 -0.61926724 15.54231241 -0.5625 14.1875 C-0.50922394 12.81317193 -0.45648399 11.43882297 -0.40429688 10.06445312 C-0.2748033 6.70939235 -0.13984284 3.35464273 0 0 Z " fill="#DFAB31" transform="translate(1575,1043)"/>
<path d="M0 0 C6.86964339 -0.55699811 10.70059928 0.92370289 16.5 4.5 C17.22703125 4.92925781 17.9540625 5.35851563 18.703125 5.80078125 C20.47801145 6.85170086 22.24037399 7.9237239 24 9 C24 9.33 24 9.66 24 10 C22.35 10 20.7 10 19 10 C19 9.34 19 8.68 19 8 C17.68 8 16.36 8 15 8 C15 7.34 15 6.68 15 6 C12.03 5.505 12.03 5.505 9 5 C9 9.62 9 14.24 9 19 C10.98 19.33 12.96 19.66 15 20 C19.06425988 20.84701738 22.49089037 21.66059358 26 24 C24.8141763 27.37503669 23.72426311 29.64722731 21 32 C20.34 31.67 19.68 31.34 19 31 C19.66 29.68 20.32 28.36 21 27 C18.47438834 23.21158252 16.84769137 23.16485693 12.5625 21.875 C6.46304063 19.63561745 6.46304063 19.63561745 4.51171875 16.95703125 C3.72408596 14.61028945 3.2888264 12.45705837 3 10 C2.87753906 9.22140625 2.75507812 8.4428125 2.62890625 7.640625 C2.35996254 5.7679799 2.17128086 3.8840895 2 2 C1.34 2 0.68 2 0 2 C0 1.34 0 0.68 0 0 Z " fill="#FDB802" transform="translate(1543,1061)"/>
<path d="M0 0 C7.95617614 6.63014679 15.03202037 13.50015023 21 22 C8.31873103 23.0174084 -4.28352102 23.10519146 -17 23 C-17 28.61 -17 34.22 -17 40 C-17.33 40 -17.66 40 -18 40 C-18 35.38 -18 30.76 -18 26 C-19.65 25.67 -21.3 25.34 -23 25 C-23 24.34 -23 23.68 -23 23 C-23.99 23 -24.98 23 -26 23 C-26.33 24.32 -26.66 25.64 -27 27 C-27.37125 26.505 -27.7425 26.01 -28.125 25.5 C-30.74694393 23.40244486 -32.73842472 23.78256165 -36 24 C-36 23.34 -36 22.68 -36 22 C-18.51 21.34 -1.02 20.68 17 20 C14.69 17.69 12.38 15.38 10 13 C8.73146137 11.59990922 7.47664969 10.18693249 6.25 8.75 C4.64853233 6.87912655 3.08728877 5.08248388 1.296875 3.390625 C0 2 0 2 0 0 Z " fill="#D75B1C" transform="translate(1526,1038)"/>
<path d="M0 0 C5.75 -0.125 5.75 -0.125 8 1 C8 1.66 8 2.32 8 3 C8.99 3.33 9.98 3.66 11 4 C12.70862678 7.41725356 12.23636077 11.37624551 12.328125 15.15234375 C12.72601122 18.18801696 12.72601122 18.18801696 15.37109375 19.8046875 C17.89024062 20.95009455 20.40567481 22.0363935 23 23 C23 23.66 23 24.32 23 25 C23.66 25 24.32 25 25 25 C25.33 25.99 25.66 26.98 26 28 C29.51190809 29.22969878 29.51190809 29.22969878 33 30 C33 30.33 33 30.66 33 31 C29.37 31 25.74 31 22 31 C21.87625 30.0925 21.7525 29.185 21.625 28.25 C21.08875 27.1775 20.5525 26.105 20 25 C18.37189181 24.500563 16.72163353 24.0714916 15.0625 23.6875 C12.35546875 22.80859375 12.35546875 22.80859375 10 21 C7.7963099 15.68421764 7.48357168 9.67886743 7 4 C5.68 3.67 4.36 3.34 3 3 C3 2.34 3 1.68 3 1 C2.01 0.67 1.02 0.34 0 0 Z " fill="#FC7A02" transform="translate(1531,1060)"/>
<path d="M0 0 C0.99 0 1.98 0 3 0 C5.20914 3.31371 5.22481553 4.3446021 5.125 8.1875 C5.10695313 9.08855469 5.08890625 9.98960938 5.0703125 10.91796875 C5.03550781 11.94857422 5.03550781 11.94857422 5 13 C7.80747455 13.7795458 10.42029808 14.1710149 13.328125 14.31640625 C14.52695313 14.37924805 14.52695313 14.37924805 15.75 14.44335938 C16.9875 14.50233398 16.9875 14.50233398 18.25 14.5625 C19.09046875 14.60568359 19.9309375 14.64886719 20.796875 14.69335938 C22.86440671 14.79908543 24.93218281 14.90001295 27 15 C27 15.33 27 15.66 27 16 C15.45 16 3.9 16 -8 16 C-7.67 15.01 -7.34 14.02 -7 13 C-6.01 13 -5.02 13 -4 13 C-4 13.66 -4 14.32 -4 15 C-3.34 15 -2.68 15 -2 15 C-1.34 10.05 -0.68 5.1 0 0 Z " fill="#AD230F" transform="translate(1511,1079)"/>
<path d="M0 0 C-3.43564022 1.00646726 -6.87379629 2.0040545 -10.3125 3 C-11.28896484 3.28617188 -12.26542969 3.57234375 -13.27148438 3.8671875 C-14.20927734 4.13789062 -15.14707031 4.40859375 -16.11328125 4.6875 C-16.97735596 4.93886719 -17.84143066 5.19023438 -18.73168945 5.44921875 C-21 6 -21 6 -24 6 C-24 6.99 -24 7.98 -24 9 C-25.02480469 9.18175781 -26.04960938 9.36351562 -27.10546875 9.55078125 C-28.4662429 9.80416678 -29.82691473 10.0581022 -31.1875 10.3125 C-32.19780273 10.48942383 -32.19780273 10.48942383 -33.22851562 10.66992188 C-37.42702501 11.46866269 -40.42642174 12.71096179 -44 15 C-48.55450019 16.45837592 -53.20847479 17.30913066 -58 17 C-58.33 17.99 -58.66 18.98 -59 20 C-59.66 19.01 -60.32 18.02 -61 17 C-56.98219617 15.67809987 -52.960278 14.36917692 -48.9375 13.0625 C-47.80376953 12.68931641 -46.67003906 12.31613281 -45.50195312 11.93164062 C-39.99847021 10.15063012 -34.77111794 8.52769293 -29 8 C-29 7.34 -29 6.68 -29 6 C-25.58364488 5.0197441 -22.16686255 4.04098554 -18.75 3.0625 C-17.78191406 2.78470703 -16.81382813 2.50691406 -15.81640625 2.22070312 C-14.88183594 1.95322266 -13.94726562 1.68574219 -12.984375 1.41015625 C-12.12553711 1.16402588 -11.26669922 0.91789551 -10.38183594 0.66430664 C-9.59583008 0.44508545 -8.80982422 0.22586426 -8 0 C-7.31969727 -0.21470947 -6.63939453 -0.42941895 -5.93847656 -0.65063477 C-3.67282807 -1.05896512 -2.17269635 -0.69836668 0 0 Z " fill="#6E3021" transform="translate(1646,1060)"/>
<path d="M0 0 C0.33 0 0.66 0 1 0 C1 1.65 1 3.3 1 5 C1.99 5.33 2.98 5.66 4 6 C4 6.33 4 6.66 4 7 C8.27081914 7.02897435 12.54161309 7.04678996 16.8125 7.0625 C18.02744141 7.07087891 19.24238281 7.07925781 20.49414062 7.08789062 C21.65751953 7.09111328 22.82089844 7.09433594 24.01953125 7.09765625 C25.09307861 7.10289307 26.16662598 7.10812988 27.27270508 7.11352539 C30.09499365 7.12194588 30.09499365 7.12194588 33 6 C34.72795352 5.93197033 36.45835365 5.91504355 38.1875 5.9375 C39.08855469 5.94652344 39.98960938 5.95554687 40.91796875 5.96484375 C41.60503906 5.97644531 42.29210938 5.98804688 43 6 C42.42308522 9.16854747 41.58353113 10.78226459 39.27734375 13.015625 C38.73916016 13.54414062 38.20097656 14.07265625 37.64648438 14.6171875 C37.08251953 15.15601563 36.51855469 15.69484375 35.9375 16.25 C35.36966797 16.80429688 34.80183594 17.35859375 34.21679688 17.9296875 C32.81787531 19.29334214 31.40980886 20.64760417 30 22 C30 19 30 19 31.4609375 17.28125 C32.09257813 16.6934375 32.72421875 16.105625 33.375 15.5 C35.65041801 13.36503989 37.24747563 11.62878656 39 9 C37.82904785 9.01047363 36.6580957 9.02094727 35.45166016 9.03173828 C31.11689295 9.06787497 26.78213911 9.09087733 22.44726562 9.10986328 C20.56931318 9.11993534 18.69137647 9.13359362 16.81347656 9.15087891 C14.1177991 9.17507453 11.42232854 9.18647083 8.7265625 9.1953125 C7.88380768 9.20563507 7.04105286 9.21595764 6.17276001 9.22659302 C4.11378753 9.22699144 2.05532065 9.12257588 0 9 C-0.66 8.34 -1.32 7.68 -2 7 C-1.34 7 -0.68 7 0 7 C0 4.69 0 2.38 0 0 Z " fill="#CE471A" transform="translate(1520,1085)"/>
<path d="M0 0 C5.7703263 4.90477736 8.60199632 13.02282972 11 20 C11 20.66 11 21.32 11 22 C5.02703797 22.76576436 0.78062702 20.32127772 -4 17 C-4.33 16.34 -4.66 15.68 -5 15 C0.875 15.875 0.875 15.875 2 17 C3.06775224 15.03533587 4.06553465 13.03144641 5 11 C4.67 10.34 4.34 9.68 4 9 C3.34 9.66 2.68 10.32 2 11 C1.06576355 7.98968256 0.95550089 7.13349732 2 4 C1.34 4 0.68 4 0 4 C0 2.68 0 1.36 0 0 Z " fill="#1C1A29" transform="translate(1551,1043)"/>
<path d="M0 0 C2.8125 -0.25 2.8125 -0.25 6 0 C7.9375 1.6875 7.9375 1.6875 9 4 C8.75925978 7.37036311 8.41201979 8.58798021 6 11 C3.5625 11.375 3.5625 11.375 1 11 C-0.875 9.3125 -0.875 9.3125 -2 7 C-1.74303831 4.30190224 -1.20824654 2.41649307 0 0 Z " fill="#ECECEF" transform="translate(1590,1188)"/>
<path d="M0 0 C2.97 0 5.94 0 9 0 C7.02 0.99 7.02 0.99 5 2 C1.59447675 5.35024084 1.60950789 8.22272249 1.56762695 12.87988281 C1.5574353 13.56321686 1.54724365 14.2465509 1.53674316 14.95059204 C1.50663163 17.20151996 1.49735047 19.4520222 1.48828125 21.703125 C1.47143312 23.26683972 1.45328269 24.83054092 1.43388367 26.39422607 C1.38639178 30.50410738 1.35657735 34.61393381 1.33044434 38.72399902 C1.30063461 42.92027624 1.25410572 47.11636443 1.20898438 51.3125 C1.12296054 59.54157378 1.05561136 67.77066477 1 76 C0.67 76 0.34 76 0 76 C0 50.92 0 25.84 0 0 Z " fill="#F9FAFC" transform="translate(1433,644)"/>
<path d="M0 0 C5.56818182 0.56818182 5.56818182 0.56818182 7 2 C6.71269945 4.33944736 6.38063221 6.6739143 6 9 C3.69 9.33 1.38 9.66 -1 10 C-3 7 -3 7 -2.75 4.4375 C-2 2 -2 2 0 0 Z " fill="#F2F3F5" transform="translate(1622,1033)"/>
<path d="M0 0 C6.63220018 1.47382226 10.44542446 3.90353936 15.0234375 8.8828125 C16.97115438 10.96910212 19.00649505 12.78707448 21.1875 14.625 C24.5405052 17.50183878 27.28382588 20.51990191 30 24 C26.22340585 22.37633363 23.42584161 19.97003212 20.3125 17.3125 C16.62317012 14.18258758 12.91263989 11.12032468 9.0625 8.1875 C5.76799978 5.65971983 2.84189068 3.02523846 0 0 Z " fill="#BC2B20" transform="translate(1595,1100)"/>
<path d="M0 0 C1.54400191 0.47808291 3.0882711 0.95530353 4.6328125 1.43164062 C8.38336354 2.59034265 12.13010534 3.7606514 15.875 4.9375 C15.875 5.2675 15.875 5.5975 15.875 5.9375 C10.68290596 6.14942221 6.748261 5.5287689 1.875 3.9375 C1.875 3.2775 1.875 2.6175 1.875 1.9375 C0.699375 2.06125 0.699375 2.06125 -0.5 2.1875 C-4.75372744 1.89413949 -7.87829024 0.59611686 -11.7578125 -1.08984375 C-15.48952753 -2.6231722 -18.71797711 -3.21628743 -22.75 -3.25 C-23.52601562 -3.26417969 -24.30203125 -3.27835938 -25.1015625 -3.29296875 C-27.35336993 -3.24915836 -27.35336993 -3.24915836 -29.125 -1.0625 C-29.455 -2.3825 -29.785 -3.7025 -30.125 -5.0625 C-20.60811226 -8.23479591 -9.13813202 -2.87481862 0 0 Z " fill="#3D1812" transform="translate(1621.125,1093.0625)"/>
<path d="M0 0 C4.0409157 3.68308083 6.09519453 7.71091543 8.53515625 12.5390625 C9.91021068 15.25160218 9.91021068 15.25160218 13 17 C12.67 17.99 12.34 18.98 12 20 C7.49197399 18.74194623 4.5087188 17.09592835 1 14 C2.32 14 3.64 14 5 14 C4.72285156 13.49210937 4.44570312 12.98421875 4.16015625 12.4609375 C1.9665317 8.2922702 0.47586845 4.75868447 0 0 Z " fill="#7D3B25" transform="translate(1557,1051)"/>
<path d="M0 0 C0.66 0 1.32 0 2 0 C6 5.41176471 6 5.41176471 6 8 C6.61875 8.2475 7.2375 8.495 7.875 8.75 C10.35068687 10.20628639 10.95125002 11.37812506 12 14 C5.35379429 12.67075886 0.5124253 10.05938594 -4 5 C-2.35 5 -0.7 5 1 5 C0.67 3.35 0.34 1.7 0 0 Z " fill="#D62B19" transform="translate(1589,1088)"/>
<path d="M0 0 C2.97 1.98 2.97 1.98 6 4 C5.01 4.33 4.02 4.66 3 5 C2.67 16.88 2.34 28.76 2 41 C1.67 41 1.34 41 1 41 C0.11532407 27.31911868 -0.12661845 13.70790854 0 0 Z " fill="#3C180F" transform="translate(1577,1088)"/>
<path d="M0 0 C7.32761972 1.45450497 13.75788743 2.79020315 20 7 C20 7.33 20 7.66 20 8 C18.35 8 16.7 8 15 8 C15 7.34 15 6.68 15 6 C13.68 6 12.36 6 11 6 C11 5.34 11 4.68 11 4 C8.03 3.505 8.03 3.505 5 3 C5 6.96 5 10.92 5 15 C3.64588799 12.29177599 2.44629229 9.74558434 1.375 6.9375 C1.11460938 6.26589844 0.85421875 5.59429688 0.5859375 4.90234375 C0 3 0 3 0 0 Z " fill="#F6CF0E" transform="translate(1547,1063)"/>
<path d="M0 0 C3.18918787 0.59333728 5.36982553 1.18952562 7.40625 3.80859375 C8.24204389 5.19733665 9.0497495 6.60349135 9.82421875 8.02734375 C11.01256427 10.0210796 12.29793865 11.43528077 14 13 C13.67 13.66 13.34 14.32 13 15 C12.113125 14.05125 11.22625 13.1025 10.3125 12.125 C7.73035535 9.54894532 5.62298116 7.88126569 2 7 C1.01 7.33 0.02 7.66 -1 8 C-1.625 5.6875 -1.625 5.6875 -2 3 C-1.34 2.01 -0.68 1.02 0 0 Z " fill="#573A2D" transform="translate(1512,1023)"/>
<path d="M0 0 C0.33 0 0.66 0 1 0 C1 12.87 1 25.74 1 39 C-0.98 39.495 -0.98 39.495 -3 40 C-3.625 37.125 -3.625 37.125 -4 34 C-3.34 33.34 -2.68 32.68 -2 32 C-1.34 32.33 -0.68 32.66 0 33 C0 22.11 0 11.22 0 0 Z " fill="#777B7E" transform="translate(1519,728)"/>
<path d="M0 0 C-2.64977214 1.76651476 -4.37438801 2.54942773 -7.3515625 3.4375 C-8.62966797 3.82035156 -8.62966797 3.82035156 -9.93359375 4.2109375 C-10.82175781 4.47132812 -11.70992187 4.73171875 -12.625 5 C-13.92244141 5.39058594 -13.92244141 5.39058594 -15.24609375 5.7890625 C-20.79165778 7.43527191 -26.33989761 8.80598246 -32 10 C-32 10.66 -32 11.32 -32 12 C-33.32 11.67 -34.64 11.34 -36 11 C-33.40357628 7.78959575 -30.66421585 7.06575633 -26.7578125 5.95703125 C-25.52675781 5.60576172 -24.29570313 5.25449219 -23.02734375 4.89257812 C-22.38651855 4.7154126 -21.74569336 4.53824707 -21.08544922 4.35571289 C-19.13524323 3.81533826 -17.19064751 3.25759831 -15.24609375 2.69726562 C-4.82649181 -0.23699009 -4.82649181 -0.23699009 0 0 Z " fill="#BC4F31" transform="translate(1617,1067)"/>
<path d="M0 0 C6.6 0 13.2 0 20 0 C19.67 5.94 19.34 11.88 19 18 C18.67 18 18.34 18 18 18 C18 13.38 18 8.76 18 4 C15.525 3.505 15.525 3.505 13 3 C13 2.34 13 1.68 13 1 C12.01 1 11.02 1 10 1 C9.67 2.32 9.34 3.64 9 5 C8.62875 4.505 8.2575 4.01 7.875 3.5 C5.25305607 1.40244486 3.26157528 1.78256165 0 2 C0 1.34 0 0.68 0 0 Z " fill="#CC280B" transform="translate(1490,1060)"/>
<path d="M0 0 C2.625 0.375 2.625 0.375 5 1 C5.625 3.375 5.625 3.375 6 6 C4 8 4 8 1.4375 8.1875 C-1 8 -1 8 -2 7 C-2.1875 4.5625 -2.1875 4.5625 -2 2 C-1.34 1.34 -0.68 0.68 0 0 Z " fill="#F0F1F2" transform="translate(1477,900)"/>
<path d="M0 0 C5.28 0 10.56 0 16 0 C16 0.66 16 1.32 16 2 C11.38 2 6.76 2 2 2 C1.67 7.94 1.34 13.88 1 20 C0.67 20 0.34 20 0 20 C0 13.4 0 6.8 0 0 Z " fill="#424448" transform="translate(1073,1158)"/>
<path d="M0 0 C0 3.98056148 -1.442233 5.0159385 -4 8 C-4.66 8.928125 -5.32 9.85625 -6 10.8125 C-6.66 11.534375 -7.32 12.25625 -8 13 C-9.32 13 -10.64 13 -12 13 C-12.33 13.99 -12.66 14.98 -13 16 C-13.99 16 -14.98 16 -16 16 C-16 14.68 -16 13.36 -16 12 C-15.12085938 11.77570313 -14.24171875 11.55140625 -13.3359375 11.3203125 C-9.44431362 9.78006792 -7.49199603 7.89696879 -4.625 4.875 C-3.75101563 3.96492188 -2.87703125 3.05484375 -1.9765625 2.1171875 C-0.99816406 1.06917969 -0.99816406 1.06917969 0 0 Z " fill="#381E13" transform="translate(1561,1095)"/>
<path d="M0 0 C5.75 -0.125 5.75 -0.125 8 1 C8 1.66 8 2.32 8 3 C8.99 3.33 9.98 3.66 11 4 C12.26237731 6.52475462 12.09856404 8.31200466 12.0625 11.125 C12.05347656 12.03507812 12.04445313 12.94515625 12.03515625 13.8828125 C12.02355469 14.58148437 12.01195312 15.28015625 12 16 C10.24235834 12.65747633 9.08528155 9.30702864 7.9765625 5.70703125 C7.12489629 3.78639766 7.12489629 3.78639766 4.8984375 3.26171875 C4.27195312 3.17535156 3.64546875 3.08898438 3 3 C3 2.34 3 1.68 3 1 C2.01 0.67 1.02 0.34 0 0 Z " fill="#FB8A02" transform="translate(1531,1060)"/>
<path d="M0 0 C1 2 1 2 0.00390625 5.2578125 C-0.46889984 6.5497052 -0.94971969 7.83868638 -1.4375 9.125 C-1.68048828 9.78371094 -1.92347656 10.44242188 -2.17382812 11.12109375 C-2.77578321 12.74991338 -3.38702412 14.37529575 -4 16 C-4.66 16 -5.32 16 -6 16 C-6 16.99 -6 17.98 -6 19 C-6.66 19 -7.32 19 -8 19 C-7 16 -6 13 -5 10 C-5.33 9.01 -5.66 8.02 -6 7 C-4.33819262 3.59329487 -3.19665902 2.13110601 0 0 Z " fill="#482617" transform="translate(1593,1048)"/>
<path d="M0 0 C0.763125 0.20625 1.52625 0.4125 2.3125 0.625 C-3.83784169 8.10791572 -3.83784169 8.10791572 -7.6875 10.625 C-7.3575 9.305 -7.0275 7.985 -6.6875 6.625 C-6.0275 6.625 -5.3675 6.625 -4.6875 6.625 C-5.0175 4.975 -5.3475 3.325 -5.6875 1.625 C-2.6875 -0.375 -2.6875 -0.375 0 0 Z " fill="#2E1D19" transform="translate(1555.6875,1095.375)"/>
<path d="M0 0 C0.99 0 1.98 0 3 0 C3 0.66 3 1.32 3 2 C13.23 2 23.46 2 34 2 C34 2.33 34 2.66 34 3 C22.45 3 10.9 3 -1 3 C-0.67 2.01 -0.34 1.02 0 0 Z " fill="#84291A" transform="translate(1504,1092)"/>
<path d="M0 0 C0.33 0.66 0.66 1.32 1 2 C-0.19592999 4.71372755 -1.44726066 7.31097355 -2.8125 9.9375 C-3.18181641 10.66646484 -3.55113281 11.39542969 -3.93164062 12.14648438 C-5.50375899 15.22580419 -7.07798671 18.11698006 -9 21 C-9.99 20.67 -10.98 20.34 -12 20 C-11.55269531 19.31035156 -11.10539062 18.62070313 -10.64453125 17.91015625 C-6.87363784 12.04878888 -3.29178398 6.14365212 0 0 Z " fill="#BE6033" transform="translate(1589,1055)"/>
<path d="M0 0 C0.33 0 0.66 0 1 0 C1.33 4.62 1.66 9.24 2 14 C2.66 14 3.32 14 4 14 C4 12.68 4 11.36 4 10 C4.66 10 5.32 10 6 10 C6 9.34 6 8.68 6 8 C6.66 8 7.32 8 8 8 C6.7580393 11.43927579 5.44259716 14.25207819 3 17 C2.34 17 1.68 17 1 17 C-0.53266582 13.93466836 -0.10276471 10.73245728 -0.0625 7.375 C-0.05798828 6.66859375 -0.05347656 5.9621875 -0.04882812 5.234375 C-0.03703875 3.48954725 -0.01910324 1.744763 0 0 Z " fill="#331915" transform="translate(1577,1054)"/>
<path d="M0 0 C3.88755019 3.23962516 7.66755622 6.55082656 11.3125 10.0625 C12.29669922 11.00802734 12.29669922 11.00802734 13.30078125 11.97265625 C15.17105694 14.20408862 16.06407551 16.25873893 17 19 C12.39611818 15.24172913 8.41183078 11.37336029 4.578125 6.83203125 C3.03740136 4.98091136 3.03740136 4.98091136 1.296875 3.38671875 C0 2 0 2 0 0 Z " fill="#A45834" transform="translate(1526,1038)"/>
<path d="M0 0 C0.99 0 1.98 0 3 0 C6.0922885 3.4320047 7.90265492 6.90973508 8.3125 11.5 C8.1578125 12.7375 8.1578125 12.7375 8 14 C5.50447597 11.72402354 3.93377014 9.39278822 2.3125 6.4375 C1.87550781 5.65246094 1.43851563 4.86742187 0.98828125 4.05859375 C0 2 0 2 0 0 Z " fill="#683825" transform="translate(1549,1037)"/>
<path d="M0 0 C4.75 1.875 4.75 1.875 7 3 C5.8141763 6.37503669 4.72426311 8.64722731 2 11 C1.34 10.67 0.68 10.34 0 10 C0.66 8.68 1.32 7.36 2 6 C1.34 5.01 0.68 4.02 0 3 C0 2.01 0 1.02 0 0 Z " fill="#FAC516" transform="translate(1562,1082)"/>
<path d="M0 0 C1.34885129 2.69770258 1.01578483 4.65273375 0.87890625 7.6640625 C0.83056641 8.78554687 0.78222656 9.90703125 0.73242188 11.0625 C0.67634766 12.238125 0.62027344 13.41375 0.5625 14.625 C0.51029297 15.80835938 0.45808594 16.99171875 0.40429688 18.2109375 C0.27433994 21.14087561 0.13936472 24.07049673 0 27 C-0.33 27 -0.66 27 -1 27 C-1.33 19.41 -1.66 11.82 -2 4 C-2.66 3.67 -3.32 3.34 -4 3 C-2.68 2.01 -1.36 1.02 0 0 Z " fill="#D37339" transform="translate(1577,1082)"/>
<path d="M0 0 C2.125 0.375 2.125 0.375 4 1 C4.625 2.875 4.625 2.875 5 5 C4.34 5.66 3.68 6.32 3 7 C0.875 6.625 0.875 6.625 -1 6 C-1.625 4.125 -1.625 4.125 -2 2 C-1.34 1.34 -0.68 0.68 0 0 Z " fill="#DFDFE1" transform="translate(1552,972)"/>
<path d="M0 0 C7.26153846 -0.49230769 7.26153846 -0.49230769 11 2 C11.66 2.66 12.32 3.32 13 4 C10.36 3.67 7.72 3.34 5 3 C5 4.98 5 6.96 5 9 C4.34 8.67 3.68 8.34 3 8 C2.375 4.9375 2.375 4.9375 2 2 C1.34 2 0.68 2 0 2 C0 1.34 0 0.68 0 0 Z " fill="#F3B40F" transform="translate(1543,1061)"/>
<path d="M0 0 C1.32 0.66 2.64 1.32 4 2 C4.25 4.75 4.25 4.75 4 8 C2 10.375 2 10.375 0 12 C-1 9 -1 9 0 6 C0.03920815 4.00038436 0.04443347 1.99950636 0 0 Z " fill="#2C2D31" transform="translate(1285,1189)"/>
<path d="M0 0 C-3.29787288 2.19858192 -6.13806357 3.08315174 -9.9375 4.1875 C-11.16339844 4.55230469 -12.38929687 4.91710938 -13.65234375 5.29296875 C-16.70898753 5.93853762 -18.15430227 6.1197357 -21 5 C-19.35 4.67 -17.7 4.34 -16 4 C-16 3.34 -16 2.68 -16 2 C-10.61972975 0.80911014 -5.54708616 -0.2919519 0 0 Z " fill="#561C10" transform="translate(1612,1067)"/>
<path d="M0 0 C1.485 0.99 1.485 0.99 3 2 C3 2.66 3 3.32 3 4 C3.639375 4.103125 4.27875 4.20625 4.9375 4.3125 C5.618125 4.539375 6.29875 4.76625 7 5 C7.33 5.99 7.66 6.98 8 8 C9.49985609 9.66710346 9.49985609 9.66710346 11 11 C10.67 11.99 10.34 12.98 10 14 C8.32731078 12.04653795 6.66178419 10.08770186 5 8.125 C4.28457031 7.29162109 4.28457031 7.29162109 3.5546875 6.44140625 C0 2.2265625 0 2.2265625 0 0 Z " fill="#E0E3E7" transform="translate(1385,1011)"/>
<path d="M0 0 C6.05582728 2.01860909 9.98255455 8.2094379 14 13 C10.24269753 11.3718356 7.383177 8.98598083 4.25 6.375 C3.26515625 5.55773438 2.2803125 4.74046875 1.265625 3.8984375 C0.51796875 3.27195312 -0.2296875 2.64546875 -1 2 C-0.67 1.34 -0.34 0.68 0 0 Z " fill="#93372A" transform="translate(1611,1111)"/>
<path d="M0 0 C0.66 0 1.32 0 2 0 C2.99 2.64 3.98 5.28 5 8 C1.625 8.1875 1.625 8.1875 -2 8 C-2.66 7.01 -3.32 6.02 -4 5 C-2.35 5 -0.7 5 1 5 C0.67 3.35 0.34 1.7 0 0 Z " fill="#E72619" transform="translate(1589,1088)"/>
<path d="M0 0 C-1.485 1.485 -1.485 1.485 -3 3 C-0.525 3.99 -0.525 3.99 2 5 C-0.78823655 6.0326802 -1.8677274 6.04509293 -4.75 5.0625 C-5.4925 4.711875 -6.235 4.36125 -7 4 C-7 2.68 -7 1.36 -7 0 C-2.25 -1.125 -2.25 -1.125 0 0 Z " fill="#392728" transform="translate(1595,1077)"/>
<path d="M0 0 C2.62187494 1.04874998 3.79371361 1.64931313 5.25 4.125 C5.4975 4.74375 5.745 5.3625 6 6 C4.35 6.66 2.7 7.32 1 8 C0.01 6.02 -0.98 4.04 -2 2 C-1.34 1.34 -0.68 0.68 0 0 Z " fill="#26242B" transform="translate(1514,1029)"/>
<path d="M0 0 C0.66 0.33 1.32 0.66 2 1 C-2.29 5.29 -6.58 9.58 -11 14 C-11 11 -11 11 -9.609375 9.31640625 C-8.99578125 8.73761719 -8.3821875 8.15882812 -7.75 7.5625 C-7.11449219 6.9540625 -6.47898437 6.345625 -5.82421875 5.71875 C-4.92123047 4.86796875 -4.92123047 4.86796875 -4 4 C-3.195625 3.195625 -2.39125 2.39125 -1.5625 1.5625 C-1.046875 1.046875 -0.53125 0.53125 0 0 Z " fill="#CB884D" transform="translate(1561,1093)"/>
<path d="M0 0 C0.85464844 0.07863281 1.70929688 0.15726563 2.58984375 0.23828125 C5.0791575 0.69052624 6.87401027 1.44346291 9.0625 2.6875 C7.58136719 2.65269531 7.58136719 2.65269531 6.0703125 2.6171875 C4.14832031 2.59011719 4.14832031 2.59011719 2.1875 2.5625 C0.91132812 2.53929687 -0.36484375 2.51609375 -1.6796875 2.4921875 C-5.02343338 2.33108476 -5.02343338 2.33108476 -6.9375 4.6875 C-7.2675 3.3675 -7.5975 2.0475 -7.9375 0.6875 C-4.82938934 -0.34853689 -3.20675549 -0.32308664 0 0 Z " fill="#65150B" transform="translate(1598.9375,1087.3125)"/>
<path d="M0 0 C3.29078593 2.79716804 5.06305458 6.19528578 7 10 C6.67 10.66 6.34 11.32 6 12 C5.34 11.01 4.68 10.02 4 9 C3.34 9.66 2.68 10.32 2 11 C1.06576355 7.98968256 0.95550089 7.13349732 2 4 C1.34 4 0.68 4 0 4 C0 2.68 0 1.36 0 0 Z " fill="#321813" transform="translate(1551,1043)"/>
<path d="M0 0 C0.625 1.8125 0.625 1.8125 1 4 C0.01 5.485 0.01 5.485 -1 7 C-1.33 8.03125 -1.66 9.0625 -2 10.125 C-3 13 -3 13 -5 14 C-4.46515599 8.65155992 -2.53309233 4.64203897 0 0 Z " fill="#E8E9EC" transform="translate(1015,786)"/>
<path d="M0 0 C-3.22448147 2.14965431 -3.79930965 2.22152284 -7.44921875 1.9765625 C-8.29677734 1.925 -9.14433594 1.8734375 -10.01757812 1.8203125 C-10.89865234 1.75585938 -11.77972656 1.69140625 -12.6875 1.625 C-13.58017578 1.56828125 -14.47285156 1.5115625 -15.39257812 1.453125 C-17.59587413 1.31173702 -19.79801539 1.16034022 -22 1 C-22 0.67 -22 0.34 -22 0 C-19.08365878 -0.19502282 -16.16720455 -0.38129328 -13.25 -0.5625 C-12.0125 -0.64661133 -12.0125 -0.64661133 -10.75 -0.73242188 C-9.95078125 -0.78076172 -9.1515625 -0.82910156 -8.328125 -0.87890625 C-7.5949707 -0.9260376 -6.86181641 -0.97316895 -6.10644531 -1.02172852 C-3.91642774 -0.99913793 -2.09512813 -0.61487456 0 0 Z " fill="#42170A" transform="translate(1560,1094)"/>
<path d="M0 0 C-8.261959 4.40774487 -8.261959 4.40774487 -13 5 C-12.28125 3.08203125 -12.28125 3.08203125 -11 1 C-8.90625 0.13671875 -8.90625 0.13671875 -6.5 -0.3125 C-5.7059375 -0.47363281 -4.911875 -0.63476562 -4.09375 -0.80078125 C-2 -1 -2 -1 0 0 Z " fill="#E7EAED" transform="translate(1258,1369)"/>
<path d="M0 0 C0.70576172 0.52400391 0.70576172 0.52400391 1.42578125 1.05859375 C2.35970703 1.74115234 2.35970703 1.74115234 3.3125 2.4375 C4.23482422 3.11619141 4.23482422 3.11619141 5.17578125 3.80859375 C7.09677101 5.17336308 7.09677101 5.17336308 10 6 C9.67 7.32 9.34 8.64 9 10 C8.34 9.67 7.68 9.34 7 9 C7.33 8.34 7.66 7.68 8 7 C7.05125 6.773125 6.1025 6.54625 5.125 6.3125 C2 5 2 5 0.625 2.375 C0.41875 1.59125 0.2125 0.8075 0 0 Z " fill="#DC2B1B" transform="translate(1585,1078)"/>
<path d="M0 0 C1.125 3.75 1.125 3.75 0 6 C2.64 5.67 5.28 5.34 8 5 C4.71536341 7.18975773 1.79303725 7.99806563 -2 9 C-2.33 8.34 -2.66 7.68 -3 7 C-2.06421005 4.64018187 -1.06652192 2.30368736 0 0 Z " fill="#651609" transform="translate(1583,1068)"/>
<path d="M0 0 C1.32 0 2.64 0 4 0 C3.8125 1.875 3.8125 1.875 3 4 C0.4375 5.25 0.4375 5.25 -2 6 C-1.125 1.125 -1.125 1.125 0 0 Z " fill="#FD120D" transform="translate(1581,1081)"/>
<path d="M0 0 C-2.5654594 2.5654594 -4.47686668 2.54046087 -8 3 C-8 3.66 -8 4.32 -8 5 C-9.32 4.67 -10.64 4.34 -12 4 C-8.47224824 -0.05691453 -5.19281521 -0.14424487 0 0 Z " fill="#D74A2D" transform="translate(1593,1074)"/>
<path d="M0 0 C2.97 0.495 2.97 0.495 6 1 C6 1.66 6 2.32 6 3 C6.928125 3.2165625 6.928125 3.2165625 7.875 3.4375 C10 4 10 4 12 5 C12 5.66 12 6.32 12 7 C1.49090909 2.98181818 1.49090909 2.98181818 0 0 Z " fill="#3C1907" transform="translate(1546,1058)"/>
<path d="M0 0 C0.99 0 1.98 0 3 0 C2.57742724 1.4835001 2.13643678 2.96176424 1.6875 4.4375 C1.44386719 5.26121094 1.20023438 6.08492187 0.94921875 6.93359375 C0.63597656 7.61550781 0.32273437 8.29742188 0 9 C-0.99 9.33 -1.98 9.66 -3 10 C-2.67 8.68 -2.34 7.36 -2 6 C-1.34 6 -0.68 6 0 6 C-0.33 5.01 -0.66 4.02 -1 3 C-0.67 2.01 -0.34 1.02 0 0 Z " fill="#E9EAEC" transform="translate(1035,949)"/>
<path d="M0 0 C0.66 0 1.32 0 2 0 C0.7874262 3.72433382 -0.50859979 7.37802806 -2 11 C-2.66 11 -3.32 11 -4 11 C-3.39301257 6.87248551 -1.96189209 3.6678852 0 0 Z " fill="#EBEBED" transform="translate(1002,817)"/>
<path d="M0 0 C1.65 1.65 3.3 3.3 5 5 C4.01 5 3.02 5 2 5 C1.67 7.64 1.34 10.28 1 13 C0.67 13 0.34 13 0 13 C0 8.71 0 4.42 0 0 Z " fill="#303134" transform="translate(759,1171)"/>
<path d="M0 0 C0.90105469 0.01804687 1.80210938 0.03609375 2.73046875 0.0546875 C3.41753906 0.07789063 4.10460938 0.10109375 4.8125 0.125 C3.63671875 1.64453125 3.63671875 1.64453125 1.8125 3.125 C-0.66796875 3.19921875 -0.66796875 3.19921875 -3.375 2.8125 C-4.72658203 2.63267578 -4.72658203 2.63267578 -6.10546875 2.44921875 C-7.13607422 2.28873047 -7.13607422 2.28873047 -8.1875 2.125 C-4.87379 -0.08414 -3.8428979 -0.09981553 0 0 Z " fill="#DD6414" transform="translate(1558.1875,1090.875)"/>
<path d="M0 0 C1.9375 0.8125 1.9375 0.8125 4 2 C4.33 2.99 4.66 3.98 5 5 C2.69 5 0.38 5 -2 5 C-2 4.34 -2 3.68 -2 3 C-1.34 3 -0.68 3 0 3 C0 2.01 0 1.02 0 0 Z " fill="#EFBB25" transform="translate(1569,1068)"/>
<path d="M0 0 C0.99 0.33 1.98 0.66 3 1 C3 3.31 3 5.62 3 8 C2.01 8 1.02 8 0 8 C-1.125 2.25 -1.125 2.25 0 0 Z " fill="#9A9DA2" transform="translate(1516,760)"/>
<path d="M0 0 C-4.51350747 3.52273754 -7.28341664 4.45732667 -13 4 C-10.56272708 2.37515139 -8.62713877 1.34310925 -5.9375 0.3125 C-5.24527344 0.04050781 -4.55304688 -0.23148438 -3.83984375 -0.51171875 C-2 -1 -2 -1 0 0 Z " fill="#ABADB2" transform="translate(1077,1371)"/>
<path d="M0 0 C3.16115776 1.36983503 3.9927092 1.9890638 6 5 C4.68 5.99 3.36 6.98 2 8 C1.34 7.01 0.68 6.02 0 5 C0.66 4.01 1.32 3.02 2 2 C1.34 2 0.68 2 0 2 C0 1.34 0 0.68 0 0 Z " fill="#2F1B1A" transform="translate(1616,1118)"/>
<path d="M0 0 C0.99 0.33 1.98 0.66 3 1 C2.01 2.98 1.02 4.96 0 7 C-1.32 5.68 -2.64 4.36 -4 3 C-2.1875 1.4375 -2.1875 1.4375 0 0 Z " fill="#27292E" transform="translate(1394,881)"/>
<path d="M0 0 C3.96 0 7.92 0 12 0 C11.01 0.495 11.01 0.495 10 1 C9.34786708 3.02463255 9.34786708 3.02463255 9 5 C8.62875 4.505 8.2575 4.01 7.875 3.5 C5.25305607 1.40244486 3.26157528 1.78256165 0 2 C0 1.34 0 0.68 0 0 Z " fill="#9B2312" transform="translate(1490,1060)"/>
<path d="M0 0 C0 0.99 0 1.98 0 3 C-0.66 3 -1.32 3 -2 3 C-2.33 3.99 -2.66 4.98 -3 6 C-3.99 6 -4.98 6 -6 6 C-6 4.68 -6 3.36 -6 2 C-4.02 1.34 -2.04 0.68 0 0 Z " fill="#492A1E" transform="translate(1551,1105)"/>
<path d="M0 0 C0.33 0 0.66 0 1 0 C1 1.65 1 3.3 1 5 C1.99 5.33 2.98 5.66 4 6 C3.67 6.99 3.34 7.98 3 9 C1.35 8.67 -0.3 8.34 -2 8 C-1.34 7.67 -0.68 7.34 0 7 C0 4.69 0 2.38 0 0 Z " fill="#D42C08" transform="translate(1520,1085)"/>
<path d="M0 0 C7.57142857 1.85714286 7.57142857 1.85714286 10 5 C3.375 4.25 3.375 4.25 0 2 C0 1.34 0 0.68 0 0 Z " fill="#DDE0E3" transform="translate(733,1344)"/>
<path d="M0 0 C0.33 0.99 0.66 1.98 1 3 C-1.3125 6.1875 -1.3125 6.1875 -4 9 C-4.66 9 -5.32 9 -6 9 C-4.47291037 5.56404834 -2.40072955 2.88087546 0 0 Z " fill="#353538" transform="translate(1033,1179)"/>
<path d="M0 0 C1.65 0.33 3.3 0.66 5 1 C3.68 2.32 2.36 3.64 1 5 C1 4.34 1 3.68 1 3 C0.34 3 -0.32 3 -1 3 C-0.67 2.01 -0.34 1.02 0 0 Z " fill="#332A24" transform="translate(1553,1095)"/>
<path d="M0 0 C0.99 0.33 1.98 0.66 3 1 C3 2.32 3 3.64 3 5 C1.68 5 0.36 5 -1 5 C-0.67 3.35 -0.34 1.7 0 0 Z " fill="#D9DBDF" transform="translate(1509,936)"/>
<path d="M0 0 C2.875 0.6875 2.875 0.6875 6 2 C7.375 4.625 7.375 4.625 8 7 C4.46399535 5.08864614 2.21027154 3.37357234 0 0 Z " fill="#47281D" transform="translate(1512,1023)"/>
<path d="M0 0 C0.99 0.99 1.98 1.98 3 3 C2.67 3.66 2.34 4.32 2 5 C2.99 5.33 3.98 5.66 5 6 C4.01 7.485 4.01 7.485 3 9 C0 3.375 0 3.375 0 0 Z " fill="#E1E5E9" transform="translate(945,991)"/>
<path d="M0 0 C0.99 0.33 1.98 0.66 3 1 C2.01 1.495 2.01 1.495 1 2 C1 2.66 1 3.32 1 4 C-0.98 4.66 -2.96 5.32 -5 6 C-3.35 4.02 -1.7 2.04 0 0 Z " fill="#E0E1E5" transform="translate(1401,759)"/>
</svg>
